<svg xmlns="http://www.w3.org/2000/svg" width="64" height="64" viewBox="0 0 64 64">
  <g fill="#FFFFFF" fill-rule="evenodd">
    <path d="M34.5162836,6.53502139 L50.5685007,20.6549988 L50.5685007,20.6549988 C51.8344485,21.7685617 51.9579808,23.6975363 50.8444179,24.9634841 C50.2648365,25.6223779 49.4297448,26 48.5522167,26 L16.4477825,26 L16.4477825,26 C14.7617676,26 13.3949825,24.6332149 13.3949825,22.9472 C13.3949825,22.0696719 13.7726046,21.2345801 14.4314984,20.6549988 L30.4837155,6.53502139 L30.4837155,6.53502139 C31.6366255,5.52088968 33.3633737,5.52088968 34.5162836,6.53502139 Z"/>
    <path d="M34.5162836,37.5350214 L50.5685007,51.6549988 L50.5685007,51.6549988 C51.8344485,52.7685617 51.9579808,54.6975363 50.8444179,55.9634841 C50.2648365,56.6223779 49.4297448,57 48.5522167,57 L16.4477825,57 L16.4477825,57 C14.7617676,57 13.3949825,55.6332149 13.3949825,53.9472 C13.3949825,53.0696719 13.7726046,52.2345801 14.4314984,51.6549988 L30.4837155,37.5350214 L30.4837155,37.5350214 C31.6366255,36.5208897 33.3633737,36.5208897 34.5162836,37.5350214 Z" transform="rotate(180 32.5 47)"/>
  </g>
</svg>
