<svg xmlns="http://www.w3.org/2000/svg" width="64" height="64" viewBox="0 0 64 64">
  <g fill="#9BAABF" transform="translate(14 8)">
    <path d="M23.4,39 L9,39 C9,39.4571429 9,40.8285714 9,41.2857143 C9,45.1714286 12.12,45.8571429 16.2,45.8571429 C20.28,45.8571429 23.4,45.1714286 23.4,41.2857143 C23.4,40.8285714 23.4,39.4571429 23.4,39 Z"/>
    <path d="M19.2 42L12 42C12 42.2285714 12 42.9142857 12 43.1428571 12 44.9714286 13.68 46.5714286 15.6 46.5714286 17.52 46.5714286 19.2 44.9714286 19.2 43.1428571 19.2 42.9142857 19.2 42.2285714 19.2 42zM33.615088 16.0052157C33.615088 7.09092995 25.935088-.223355765 16.575088.0052156636 7.69508796.233787092.255087956 7.09092995.0150879559 15.3195014-.224912044 20.8052157 2.41508796 25.8337871 6.73508796 28.8052157 8.65508796 30.1766442 9.61508796 32.2337871 9.61508796 34.2909299L9.61508796 34.2909299 24.015088 34.2909299 24.015088 34.2909299C24.015088 32.2337871 24.975088 30.1766442 26.655088 28.8052157 30.975088 26.0623585 33.615088 21.2623585 33.615088 16.0052157z"/>
  </g>
</svg>
