<?xml version="1.0" encoding="UTF-8"?>
<svg width="12px" height="16px" viewBox="0 0 12 16" version="1.1" xmlns="http://www.w3.org/2000/svg" xmlns:xlink="http://www.w3.org/1999/xlink">
    <!-- Generator: Sketch 48.2 (47327) - http://www.bohemiancoding.com/sketch -->
    <title>Group</title>
    <desc>Created with Sketch.</desc>
    <defs>
        <rect id="path-1" x="3.2" y="4.94117647" width="1" height="6.58823529" rx="0.5"></rect>
        <rect id="path-2" x="5.6" y="4.94117647" width="1" height="6.58823529" rx="0.5"></rect>
        <rect id="path-3" x="8" y="4.94117647" width="1" height="6.58823529" rx="0.5"></rect>
    </defs>
    <g id="Lists-1" stroke="none" stroke-width="1" fill="none" fill-rule="evenodd" transform="translate(-1030.000000, -525.000000)">
        <g id="Group" transform="translate(1030.000000, 526.000000)">
            <path d="M9.19138462,13.7644889 L3.11630769,13.7644889 C1.92676923,13.7644889 1.07692308,12.6339111 1.07692308,11.4311556 L1.07692308,2.90235556 C1.07692308,2.55857778 1.23784615,2.56448889 1.57784615,2.56448889 L10.4221538,2.56448889 C10.7621538,2.56448889 10.9230769,2.55888889 10.9230769,2.90235556 L10.9230769,11.7422667 C10.9230769,12.7732889 10.2110769,13.7644889 9.19138462,13.7644889 Z" id="Shape" stroke="#F97A7A" stroke-width="1.2" stroke-linecap="round"></path>
            <path d="M8.15384615,1.94226667 C8.15384615,2.114 8.016,2.25337778 7.84615385,2.25337778 L4.15384615,2.25337778 C3.984,2.25337778 3.84615385,2.114 3.84615385,1.94226667 L3.84615385,0.386711111 C3.84615385,0.214977778 3.984,0.0756 4.15384615,0.0756 L7.84615385,0.0756 C8.016,0.0756 8.15384615,0.214977778 8.15384615,0.386711111 L8.15384615,1.94226667 Z" id="Shape" stroke="#F97A7A" stroke-width="1.2" stroke-linecap="round"></path>
            <g id="Rectangle">
                <use fill="#F97A7A" fill-rule="evenodd" xlink:href="#path-1"></use>
                <rect stroke="#F97A7A" stroke-width="0.8" x="3.6" y="5.34117647" width="1" height="5.78823529" rx="0.5"></rect>
            </g>
            <g id="Rectangle">
                <use fill="#F97A7A" fill-rule="evenodd" xlink:href="#path-2"></use>
                <rect stroke="#F97A7A" stroke-width="0.8" x="6" y="5.34117647" width="1" height="5.78823529" rx="0.5"></rect>
            </g>
            <g id="Rectangle">
                <use fill="#F97A7A" fill-rule="evenodd" xlink:href="#path-3"></use>
                <rect stroke="#F97A7A" stroke-width="0.8" x="8.4" y="5.34117647" width="1" height="5.78823529" rx="0.5"></rect>
            </g>
        </g>
    </g>
</svg>