<?xml version="1.0" encoding="UTF-8"?>
<svg width="23px" height="23px" viewBox="0 0 23 23" version="1.1" xmlns="http://www.w3.org/2000/svg" xmlns:xlink="http://www.w3.org/1999/xlink">
    <!-- Generator: Sketch 49.3 (51167) - http://www.bohemiancoding.com/sketch -->
    <title>Group 3</title>
    <desc>Created with Sketch.</desc>
    <defs></defs>
    <g id="Views" stroke="none" stroke-width="1" fill="none" fill-rule="evenodd">
        <g id="Account-Creation---Flash-Messages" transform="translate(-581.000000, -346.000000)">
            <g id="Group-2" transform="translate(556.000000, 317.000000)">
                <g id="Group-3" transform="translate(25.000000, 29.000000)">
                    <circle id="Oval" fill="#F2F2F8" cx="11.5" cy="11.5" r="11.5"></circle>
                    <path d="M15.2468676,8.57275966 L8.57275966,15.2468676 C8.34642583,15.4732015 7.97946619,15.4732015 7.75313236,15.2468676 C7.52679853,15.0205338 7.52679853,14.6535742 7.75313236,14.4272403 L14.4272403,7.75313236 C14.6535742,7.52679853 15.0205338,7.52679853 15.2468676,7.75313236 C15.4732015,7.97946619 15.4732015,8.34642583 15.2468676,8.57275966 Z" id="Rectangle-3" fill="#E87B7B"></path>
                    <path d="M15.2468676,14.4272403 C15.4732015,14.6535742 15.4732015,15.0205338 15.2468676,15.2468676 C15.0205338,15.4732015 14.6535742,15.4732015 14.4272403,15.2468676 L7.75313236,8.57275966 C7.52679853,8.34642583 7.52679853,7.97946619 7.75313236,7.75313236 C7.97946619,7.52679853 8.34642583,7.52679853 8.57275966,7.75313236 L15.2468676,14.4272403 Z" id="Rectangle-3" fill="#E87B7B"></path>
                </g>
            </g>
        </g>
    </g>
</svg>