<?xml version="1.0" encoding="UTF-8"?>
<svg width="12px" height="11px" viewBox="0 0 12 11" version="1.1" xmlns="http://www.w3.org/2000/svg" xmlns:xlink="http://www.w3.org/1999/xlink">
    <!-- Generator: Sketch 48.2 (47327) - http://www.bohemiancoding.com/sketch -->
    <title>Group 4</title>
    <desc>Created with Sketch.</desc>
    <defs></defs>
    <g id="Home-(logged-in)-2" stroke="none" stroke-width="1" fill="none" fill-rule="evenodd" transform="translate(-72.000000, -238.000000)" stroke-linecap="round" stroke-linejoin="round">
        <g id="Group-4" transform="translate(73.000000, 239.000000)" stroke="#B1BBC7" stroke-width="0.88">
            <path d="M0.11627907,2.54084211 L1.55813953,0.171947368 C1.55813953,0.0762631579 1.66744186,0.0577894737 1.80232558,0.0577894737 L8.43023256,0.0577894737 C8.56511628,0.0577894737 8.6744186,0.0762631579 8.6744186,0.171947368 L9.88372093,2.57044737" id="Shape"></path>
            <path d="M4.68186047,8.79963158 L0.166046512,2.96786842 C0.0246511628,2.78171053 0.201395349,2.66305263 0.484186047,2.66305263 L9.51604651,2.66305263 C9.79883721,2.66305263 9.9755814,2.78171053 9.83418605,2.96786842 L5.31837209,8.85671053 C5.17674419,9.04263158 4.82325581,8.98578947 4.68186047,8.79963158 Z" id="Shape"></path>
            <path d="M5.31813953,8.79963158 L7.25302326,0.412815789" id="Shape"></path>
            <path d="M2.9844186,0.412815789 L4.82627907,8.90644737" id="Shape"></path>
        </g>
    </g>
</svg>