<?xml version="1.0" encoding="UTF-8"?>
<svg width="6px" height="12px" viewBox="0 0 6 12" version="1.1" xmlns="http://www.w3.org/2000/svg" xmlns:xlink="http://www.w3.org/1999/xlink">
    <!-- Generator: Sketch 49.2 (51160) - http://www.bohemiancoding.com/sketch -->
    <title>Shape</title>
    <desc>Created with Sketch.</desc>
    <defs></defs>
    <g id="Views" stroke="none" stroke-width="1" fill="none" fill-rule="evenodd">
        <g id="Home-(not-logged-in)-1" transform="translate(-1326.000000, -41.000000)" fill="#6CC69D" fill-rule="nonzero">
            <path d="M1332,41.0859135 L1331.94331,43.2500764 C1331.94331,43.2500764 1331.69526,43.2388173 1330.82449,43.2500764 C1329.96897,43.2613811 1329.95883,43.9722997 1329.95883,44.0061682 L1329.94869,45.8060741 L1331.94331,45.8455493 L1331.65473,48.1476476 L1329.95883,48.1476476 L1329.91327,53 L1327.8579,53 L1327.80224,48.1589067 L1326,48.1476476 L1326.05063,45.8060741 L1327.82249,45.8060741 C1327.82249,45.8060741 1327.82249,44.113745 1327.82249,44.1133803 C1327.82249,43.4511447 1327.96453,42.7325225 1328.30313,42.1801429 C1328.60181,41.692902 1329.05341,41.3714023 1329.557,41.2068463 C1329.557,41.2068463 1330.61313,40.837484 1332,41.0859135 Z" id="Shape"></path>
        </g>
    </g>
</svg>