<?xml version="1.0" encoding="UTF-8"?>
<svg width="14px" height="12px" viewBox="0 0 14 12" version="1.1" xmlns="http://www.w3.org/2000/svg" xmlns:xlink="http://www.w3.org/1999/xlink">
    <!-- Generator: Sketch 49.2 (51160) - http://www.bohemiancoding.com/sketch -->
    <title>Shape</title>
    <desc>Created with Sketch.</desc>
    <defs></defs>
    <g id="Views" stroke="none" stroke-width="1" fill="none" fill-rule="evenodd">
        <g id="Home-(not-logged-in)-1" transform="translate(-1346.000000, -41.000000)" fill="#6CC69D" fill-rule="nonzero">
            <path d="M1352.64446,44.7031944 C1351.769,42.0699574 1355.70927,39.5664382 1357.33274,41.9697557 C1357.33274,41.9697557 1357.96208,41.9452498 1359.1106,41.2737891 C1359.1106,41.2737891 1358.83674,42.2232552 1357.95325,42.8515857 C1357.95325,42.8515857 1358.62467,42.8468479 1359.43748,42.4536104 C1359.43748,42.4536104 1358.92507,43.3552629 1358.12996,43.9595231 C1358.12996,43.9595231 1358.1123,45.3119746 1357.92677,46.1560656 C1357.74123,47.0001565 1357.12278,49.3501601 1355.26753,50.9999495 C1353.41228,52.6497933 1351.1506,53.0142772 1349.86956,52.9183232 C1348.58856,52.8224235 1347.016,52.2948939 1346,51.6138487 C1346,51.6138487 1348.32353,51.882433 1350.03743,50.3477123 C1350.03743,50.3477123 1348.30587,50.4340274 1347.48423,48.2662929 C1347.48423,48.2662929 1348.07615,48.3813616 1348.71225,48.1895623 C1348.71225,48.1895623 1346.53007,47.7579323 1346.50359,45.2064905 C1346.50359,45.2064905 1347.2192,45.5901434 1347.74927,45.5518054 C1347.74927,45.5518054 1345.66429,43.8252309 1346.9365,41.5903504 C1346.9365,41.5903504 1349.02309,44.5931903 1352.64446,44.7031944 Z" id="Shape"></path>
        </g>
    </g>
</svg>