<?xml version="1.0" encoding="UTF-8"?>
<svg width="11px" height="12px" viewBox="0 0 11 12" version="1.1" xmlns="http://www.w3.org/2000/svg" xmlns:xlink="http://www.w3.org/1999/xlink">
    <!-- Generator: Sketch 49.2 (51160) - http://www.bohemiancoding.com/sketch -->
    <title>XMLID_31_</title>
    <desc>Created with Sketch.</desc>
    <defs></defs>
    <g id="Views" stroke="none" stroke-width="1" fill="none" fill-rule="evenodd">
        <g id="Home-(not-logged-in)-1" transform="translate(-1372.000000, -41.000000)" fill="#6CC69D" fill-rule="nonzero">
            <path d="M1377.30001,45.6203346 L1377.30001,47.901597 C1377.30001,47.901597 1379.33564,47.8971501 1380.16709,47.8971501 C1379.71655,49.3735226 1379.02026,50.1784125 1377.30001,50.1784125 C1375.55928,50.1784125 1374.20356,48.6486771 1374.20356,46.7587423 C1374.20356,44.8688076 1375.56338,43.3390722 1377.30001,43.3390722 C1378.22157,43.3390722 1378.81547,43.6903777 1379.36021,44.1795373 C1379.79847,43.7037184 1379.76161,43.6370148 1380.87158,42.4986071 C1379.92953,41.5692039 1378.67621,41 1377.3041,41 C1374.37558,41 1372,43.5792051 1372,46.7587423 C1372,49.9382796 1374.37558,52.5174846 1377.3041,52.5174846 C1381.68255,52.5174846 1382.75156,48.3774158 1382.39523,45.6203346 C1381.35898,45.6203346 1377.30001,45.6203346 1377.30001,45.6203346 Z" id="XMLID_31_"></path>
        </g>
    </g>
</svg>