<?xml version="1.0" encoding="UTF-8"?>
<svg width="9px" height="12px" viewBox="0 0 9 12" version="1.1" xmlns="http://www.w3.org/2000/svg" xmlns:xlink="http://www.w3.org/1999/xlink">
    <!-- Generator: Sketch 48.2 (47327) - http://www.bohemiancoding.com/sketch -->
    <title>Shape</title>
    <desc>Created with Sketch.</desc>
    <defs></defs>
    <g id="Home-(logged-in)-2" stroke="none" stroke-width="1" fill="none" fill-rule="evenodd" transform="translate(-74.000000, -269.000000)">
        <path d="M82.3204504,273.600632 C82.2373894,273.54718 82.1404849,273.520454 82.0435803,273.533817 C82.0297368,273.533817 82.0158933,273.533817 82.0020498,273.533817 L79.7594023,273.533817 L80.0085853,269.284373 C80.0085853,269.284373 80.0085853,269.284373 80.0085853,269.27101 C80.0085853,269.257647 80.0085853,269.244284 80.0085853,269.230921 C80.0085853,269.217558 80.0085853,269.204195 80.0085853,269.190832 C80.0085853,269.177469 80.0085853,269.177469 79.9947418,269.164106 C79.9947418,269.150743 79.9808983,269.13738 79.9808983,269.124017 C79.9808983,269.110654 79.9670548,269.110654 79.9670548,269.097291 C79.9532113,269.083928 79.9532113,269.070565 79.9393678,269.057202 C79.9393678,269.043839 79.9255243,269.043839 79.9255243,269.030476 C79.9116808,269.017113 79.8978373,269.00375 79.8978373,268.990387 C79.8978373,268.990387 79.8839938,268.977024 79.8839938,268.977024 C79.8701503,268.963661 79.8563068,268.950298 79.8424633,268.936935 C79.8424633,268.936935 79.8424633,268.936935 79.8424633,268.936935 C79.8424633,268.936935 79.8286198,268.936935 79.8286198,268.923572 C79.8147763,268.910209 79.8009328,268.910209 79.7732458,268.896846 C79.7594023,268.896846 79.7594023,268.883483 79.7455587,268.883483 C79.7317152,268.883483 79.7178717,268.87012 79.7040282,268.87012 C79.6901847,268.87012 79.6763412,268.87012 79.6624977,268.87012 C79.6486542,268.87012 79.6348107,268.87012 79.6348107,268.87012 C79.6348107,268.87012 79.6209672,268.87012 79.6209672,268.87012 C79.6071237,268.87012 79.6071237,268.87012 79.5932802,268.87012 C79.5794367,268.87012 79.5517497,268.87012 79.5379062,268.87012 C79.5379062,268.87012 79.5379062,268.87012 79.5240627,268.87012 C79.4963757,268.87012 79.4825322,268.883483 79.4548452,268.883483 C79.4548452,268.883483 79.4548452,268.883483 79.4548452,268.883483 C79.4271582,268.896846 79.4133147,268.896846 79.3856277,268.910209 C79.3856277,268.910209 79.3717842,268.923572 79.3717842,268.923572 C79.3579406,268.936935 79.3440971,268.950298 79.3164101,268.963661 C79.3164101,268.963661 79.3025666,268.977024 79.3025666,268.977024 C79.2887231,268.990387 79.2748796,269.00375 79.2610361,269.017113 C79.2610361,269.017113 79.2610361,269.017113 79.2610361,269.017113 L74.5680884,275.564997 C74.5680884,275.564997 74.5680884,275.564997 74.5680884,275.564997 C74.5542449,275.57836 74.5404014,275.605086 74.5265579,275.631812 C74.5265579,275.631812 74.5265579,275.631812 74.5265579,275.645175 C74.5265579,275.658538 74.5127144,275.671901 74.5127144,275.685264 C74.5127144,275.698627 74.4988709,275.71199 74.4988709,275.71199 C74.4988709,275.71199 74.4988709,275.725353 74.4988709,275.725353 C74.4988709,275.75208 74.4988709,275.765443 74.4988709,275.792169 C74.4988709,275.792169 74.4988709,275.792169 74.4988709,275.792169 C74.4988709,275.805532 74.4988709,275.805532 74.4988709,275.818895 C74.4988709,275.832258 74.4988709,275.858984 74.4988709,275.872347 C74.4988709,275.88571 74.5127144,275.899073 74.5127144,275.912436 C74.5127144,275.925799 74.5127144,275.939162 74.5265579,275.952525 C74.5265579,275.965888 74.5404014,275.979251 74.5404014,275.992614 C74.5404014,276.005977 74.5542449,276.01934 74.5542449,276.032703 C74.5680884,276.046066 74.5680884,276.059429 74.5819319,276.059429 C74.5957754,276.072792 74.5957754,276.072792 74.6096189,276.086155 C74.6234625,276.099518 74.637306,276.112881 74.6511495,276.126244 C74.6511495,276.126244 74.664993,276.139607 74.664993,276.139607 C74.664993,276.139607 74.664993,276.139607 74.664993,276.139607 C74.664993,276.139607 74.6788365,276.139607 74.6788365,276.15297 C74.69268,276.166333 74.7065235,276.166333 74.7342105,276.179696 C74.748054,276.179696 74.748054,276.179696 74.7618975,276.193059 C74.775741,276.193059 74.7895845,276.206422 74.8172715,276.206422 C74.831115,276.206422 74.831115,276.206422 74.8449585,276.206422 C74.8726455,276.206422 74.9003325,276.219786 74.914176,276.219786 C74.914176,276.219786 74.914176,276.219786 74.914176,276.219786 C74.914176,276.219786 74.914176,276.219786 74.914176,276.219786 L77.2398846,276.219786 L76.9907015,280.469229 C76.9907015,280.469229 76.9907015,280.469229 76.9907015,280.482592 C76.9907015,280.495955 76.9907015,280.509318 76.9907015,280.522681 C76.9907015,280.536044 76.9907015,280.549407 76.9907015,280.56277 C76.9907015,280.576133 76.9907015,280.589496 77.0045451,280.589496 C77.0045451,280.602859 77.0183886,280.616222 77.0183886,280.629585 C77.0183886,280.642948 77.0322321,280.642948 77.0322321,280.656311 C77.0460756,280.669674 77.0460756,280.683037 77.0599191,280.6964 C77.0599191,280.709763 77.0737626,280.709763 77.0737626,280.723126 C77.0876061,280.736489 77.0876061,280.749852 77.1014496,280.763215 C77.1014496,280.763215 77.1152931,280.776578 77.1152931,280.776578 C77.1291366,280.789941 77.1429801,280.803304 77.1568236,280.816667 C77.1568236,280.816667 77.1568236,280.816667 77.1568236,280.816667 C77.1706671,280.816667 77.1706671,280.830031 77.1845106,280.830031 C77.1983541,280.830031 77.2121976,280.843394 77.2260411,280.843394 C77.2398846,280.856757 77.2675716,280.856757 77.2814151,280.856757 C77.2952586,280.856757 77.2952586,280.856757 77.3091021,280.856757 C77.3229456,280.856757 77.3367891,280.856757 77.3506326,280.87012 C77.3506326,280.87012 77.3644761,280.87012 77.3644761,280.87012 C77.3783196,280.87012 77.3783196,280.87012 77.3921632,280.87012 C77.4198502,280.87012 77.4613807,280.87012 77.4890677,280.856757 C77.4890677,280.856757 77.5029112,280.856757 77.5029112,280.856757 C77.5305982,280.856757 77.5444417,280.843394 77.5721287,280.830031 C77.5859722,280.830031 77.5859722,280.816667 77.5998157,280.816667 C77.6275027,280.803304 77.6413462,280.789941 77.6551897,280.776578 C77.6551897,280.776578 77.6690332,280.763215 77.6690332,280.763215 C77.6967202,280.736489 77.7105637,280.723126 77.7382507,280.6964 C77.7382507,280.6964 77.7382507,280.6964 77.7382507,280.6964 L82.4173549,274.161879 C82.55579,273.974797 82.5142594,273.734262 82.3204504,273.600632 Z M78.0981818,275.805532 C78.0981818,275.805532 78.0981818,275.792169 78.0981818,275.805532 C78.0981818,275.778806 78.0981818,275.778806 78.0981818,275.765443 C78.0981818,275.75208 78.0981818,275.738716 78.0981818,275.725353 C78.0981818,275.71199 78.0981818,275.698627 78.0843383,275.685264 C78.0843383,275.671901 78.0704948,275.658538 78.0704948,275.645175 C78.0704948,275.631812 78.0566513,275.618449 78.0566513,275.605086 C78.0566513,275.591723 78.0428078,275.57836 78.0428078,275.564997 C78.0289643,275.551634 78.0289643,275.538271 78.0151208,275.538271 C78.0012773,275.524908 78.0012773,275.511545 77.9874338,275.511545 C77.9735903,275.498182 77.9735903,275.498182 77.9597468,275.484819 C77.9459033,275.471456 77.9459033,275.471456 77.9320598,275.458093 C77.9182163,275.44473 77.9043728,275.44473 77.9043728,275.431367 C77.8905293,275.431367 77.8766858,275.418004 77.8628423,275.418004 C77.8489988,275.418004 77.8351553,275.404641 77.8213118,275.404641 C77.8074683,275.404641 77.7936248,275.391278 77.7797812,275.391278 C77.7659377,275.391278 77.7520942,275.391278 77.7382507,275.391278 C77.7244072,275.391278 77.7244072,275.391278 77.7105637,275.391278 C77.7105637,275.391278 77.6967202,275.391278 77.6967202,275.391278 C77.6967202,275.391278 77.6828767,275.391278 77.6828767,275.391278 L75.7032557,275.391278 L79.0949141,270.660765 L78.901105,273.907982 C78.901105,273.907982 78.901105,273.921345 78.901105,273.921345 C78.901105,273.921345 78.901105,273.934708 78.901105,273.934708 C78.901105,273.948071 78.901105,273.948071 78.901105,273.961434 C78.901105,273.974797 78.901105,273.98816 78.901105,274.001523 C78.901105,274.014886 78.901105,274.028249 78.9149485,274.041612 C78.9149485,274.054975 78.928792,274.068338 78.928792,274.081701 C78.928792,274.095064 78.9426355,274.108427 78.9426355,274.12179 C78.9426355,274.135153 78.956479,274.148516 78.956479,274.161879 C78.9703226,274.175242 78.9703226,274.188605 78.9841661,274.188605 C78.9980096,274.201968 78.9980096,274.201968 79.0118531,274.215331 C79.0256966,274.228694 79.0256966,274.228694 79.0395401,274.242057 C79.0533836,274.25542 79.0533836,274.25542 79.0672271,274.268783 C79.0810706,274.282146 79.0949141,274.282146 79.0949141,274.295509 C79.1087576,274.295509 79.1226011,274.308872 79.1364446,274.308872 C79.1502881,274.308872 79.1641316,274.322235 79.1779751,274.322235 C79.1918186,274.322235 79.2056621,274.335598 79.2195056,274.335598 C79.2333491,274.335598 79.2471926,274.335598 79.2610361,274.335598 C79.2748796,274.335598 79.2748796,274.335598 79.2887231,274.335598 C79.3025666,274.335598 79.3025666,274.335598 79.3164101,274.335598 C79.3164101,274.335598 79.3164101,274.335598 79.3164101,274.335598 L81.2960311,274.335598 L77.9043728,279.066111 L78.0981818,275.805532 C78.0981818,275.805532 78.0981818,275.805532 78.0981818,275.805532 Z" id="Shape" fill="#6CC69D" fill-rule="nonzero" transform="translate(78.498871, 274.870120) rotate(16.000000) translate(-78.498871, -274.870120) "></path>
    </g>
</svg>