<?xml version="1.0" encoding="UTF-8"?>
<svg width="19px" height="16px" viewBox="0 0 19 16" version="1.1" xmlns="http://www.w3.org/2000/svg" xmlns:xlink="http://www.w3.org/1999/xlink">
    <!-- Generator: Sketch 48.2 (47327) - http://www.bohemiancoding.com/sketch -->
    <title>Group</title>
    <desc>Created with Sketch.</desc>
    <defs></defs>
    <g id="UPVOTE-NO." stroke="none" stroke-width="1" fill="none" fill-rule="evenodd" transform="translate(4.000000, -6.000000)">
        <g id="Group" transform="translate(-3.000000, 7.000000)" stroke="#6CC69D">
            <path d="M16.4892444,13.6972 L0.510755556,13.6972 C0.2686,13.6972 0.188888889,13.2868 0.188888889,13.0296 L0.188888889,0.3644 C0.188888889,0.258 0.163955556,0.1592 0.221,0.0804 C0.242155556,0.0512 0.236866667,0.1248 0.264066667,0.1012 C0.339622222,0.036 0.406488889,0.0968 0.511133333,0.0968 L16.4896222,0.0968 C16.7317778,0.0968 16.8114889,0.1072 16.8114889,0.3644 L16.8114889,13.0296 C16.8111111,13.2868 16.7310222,13.6972 16.4892444,13.6972 Z" id="Shape" stroke-width="1.5"></path>
            <path d="M0.162066667,0.0808 L6.71197778,6.8688 C7.73915556,7.8944 9.3806,7.8872 10.3990889,6.8524 L16.8662667,0.128" id="Shape" stroke-width="1.5389625"></path>
            <path d="M16.8662667,13.2664 L11.5452667,5.6608" id="Shape" stroke-width="1.5389625"></path>
            <path d="M0.133733333,13.2664 L5.56542222,5.6608" id="Shape" stroke-width="1.5389625"></path>
        </g>
    </g>
</svg>