<?xml version="1.0" encoding="UTF-8"?>
<svg width="18px" height="19px" viewBox="0 0 18 19" version="1.1" xmlns="http://www.w3.org/2000/svg" xmlns:xlink="http://www.w3.org/1999/xlink">
    <!-- Generator: Sketch 49.2 (51160) - http://www.bohemiancoding.com/sketch -->
    <title>Group 6</title>
    <desc>Created with Sketch.</desc>
    <defs>
        <path d="M13.9061361,13.085223 L16.6193422,15.7890408 C17.1268859,16.2948283 17.1268859,17.1148719 16.6193422,17.6206594 C16.1117985,18.1264469 15.2889076,18.1264469 14.7813639,17.6206594 L12.0681578,14.9168415 C11.5606141,14.411054 11.5606141,13.5910105 12.0681578,13.085223 C12.5757015,12.5794355 13.3985924,12.5794355 13.9061361,13.085223 Z" id="path-1"></path>
    </defs>
    <g id="Symbols" stroke="none" stroke-width="1" fill="none" fill-rule="evenodd">
        <g id="Header-Bar" transform="translate(-363.000000, -38.000000)">
            <g id="Group-6" transform="translate(364.000000, 39.000000)">
                <g id="Group">
                    <g id="Rectangle-9">
                        <use fill="#767676" fill-rule="evenodd" xlink:href="#path-1"></use>
                        <path stroke="#6A7C94" stroke-width="1.46016" d="M13.3907871,13.6023614 C13.1681513,13.380496 12.8061426,13.380496 12.5835068,13.6023614 C12.3622711,13.8228317 12.3622711,14.1792328 12.5835068,14.3997031 L15.2967129,17.1035209 C15.5193487,17.3253864 15.8813574,17.3253864 16.1039932,17.1035209 C16.3252289,16.8830507 16.3252289,16.5266495 16.1039932,16.3061793 L13.3907871,13.6023614 Z"></path>
                    </g>
                    <ellipse id="Oval-4" stroke="#6A7C94" stroke-width="2.028" cx="6.375" cy="6.35294118" rx="6.375" ry="6.35294118"></ellipse>
                </g>
            </g>
        </g>
    </g>
</svg>