<?xml version="1.0" encoding="UTF-8"?>
<svg width="11px" height="12px" viewBox="0 0 11 12" version="1.1" xmlns="http://www.w3.org/2000/svg" xmlns:xlink="http://www.w3.org/1999/xlink">
    <!-- Generator: Sketch 49.3 (51167) - http://www.bohemiancoding.com/sketch -->
    <title>XMLID_31_</title>
    <desc>Created with Sketch.</desc>
    <defs></defs>
    <g id="Views" stroke="none" stroke-width="1" fill="none" fill-rule="evenodd">
        <g id="Signup-/-Signin-1" transform="translate(-586.000000, -387.000000)" fill="#4584EC" fill-rule="nonzero">
            <path d="M591.300009,391.620335 L591.300009,393.901597 C591.300009,393.901597 593.335638,393.89715 594.167093,393.89715 C593.716551,395.373523 593.020259,396.178412 591.300009,396.178412 C589.55928,396.178412 588.203559,394.648677 588.203559,392.758742 C588.203559,390.868808 589.563375,389.339072 591.300009,389.339072 C592.221572,389.339072 592.815467,389.690378 593.360213,390.179537 C593.798468,389.703718 593.761605,389.637015 594.871576,388.498607 C593.929534,387.569204 592.676209,387 591.304105,387 C588.375584,387 586,389.579205 586,392.758742 C586,395.93828 588.375584,398.517485 591.304105,398.517485 C595.682551,398.517485 596.751564,394.377416 596.395226,391.620335 C595.35898,391.620335 591.300009,391.620335 591.300009,391.620335 Z" id="XMLID_31_"></path>
        </g>
    </g>
</svg>