<?xml version="1.0" encoding="UTF-8"?>
<svg width="14px" height="12px" viewBox="0 0 14 12" version="1.1" xmlns="http://www.w3.org/2000/svg" xmlns:xlink="http://www.w3.org/1999/xlink">
    <!-- Generator: Sketch 49.3 (51167) - http://www.bohemiancoding.com/sketch -->
    <title>Shape</title>
    <desc>Created with Sketch.</desc>
    <defs></defs>
    <g id="Views" stroke="none" stroke-width="1" fill="none" fill-rule="evenodd">
        <g id="Signup-/-Signin-1" transform="translate(-584.000000, -315.000000)" fill="#53AAE6" fill-rule="nonzero">
            <path d="M590.644457,318.703194 C589.768996,316.069957 593.709274,313.566438 595.332745,315.969756 C595.332745,315.969756 595.96208,315.94525 597.110603,315.273789 C597.110603,315.273789 596.836739,316.223255 595.953252,316.851586 C595.953252,316.851586 596.62467,316.846848 597.437484,316.45361 C597.437484,316.45361 596.925067,317.355263 596.129959,317.959523 C596.129959,317.959523 596.112304,319.311975 595.926769,320.156066 C595.741233,321.000156 595.122783,323.35016 593.267531,324.99995 C591.412279,326.649793 589.150596,327.014277 587.869555,326.918323 C586.588565,326.822424 585.016005,326.294894 584,325.613849 C584,325.613849 586.323529,325.882433 588.037435,324.347712 C588.037435,324.347712 586.305873,324.434027 585.484231,322.266293 C585.484231,322.266293 586.076148,322.381362 586.712255,322.189562 C586.712255,322.189562 584.530072,321.757932 584.503588,319.20649 C584.503588,319.20649 585.219195,319.590143 585.749267,319.551805 C585.749267,319.551805 583.664291,317.825231 584.936504,315.59035 C584.936504,315.59035 587.023085,318.59319 590.644457,318.703194 Z" id="Shape"></path>
        </g>
    </g>
</svg>