<?xml version="1.0" encoding="UTF-8"?>
<svg width="8px" height="14px" viewBox="0 0 8 14" version="1.1" xmlns="http://www.w3.org/2000/svg" xmlns:xlink="http://www.w3.org/1999/xlink">
    <!-- Generator: Sketch 49.3 (51167) - http://www.bohemiancoding.com/sketch -->
    <title>Shape</title>
    <desc>Created with Sketch.</desc>
    <defs></defs>
    <g id="Views" stroke="none" stroke-width="1" fill="none" fill-rule="evenodd">
        <g id="Signup-/-Signin-1" transform="translate(-588.000000, -242.000000)" fill="#3E5B99" fill-rule="nonzero">
            <path d="M595.138596,242.099573 L595.071153,244.607816 C595.071153,244.607816 594.776031,244.594767 593.740014,244.607816 C592.722147,244.620918 592.71008,245.444866 592.71008,245.484119 L592.698012,247.570192 L595.071153,247.615944 L594.727809,250.284053 L592.71008,250.284053 L592.655873,255.907881 L590.210471,255.907881 L590.144245,250.297102 L588,250.284053 L588.060241,247.570192 L590.168332,247.570192 C590.168332,247.570192 590.168332,245.6088 590.168332,245.608377 C590.168332,244.840853 590.337328,244.007976 590.740183,243.367774 C591.095546,242.803067 591.632848,242.430452 592.231997,242.239733 C592.231997,242.239733 593.48854,241.811646 595.138596,242.099573 Z" id="Shape"></path>
        </g>
    </g>
</svg>