<?xml version="1.0" encoding="UTF-8"?>
<svg width="10px" height="10px" viewBox="0 0 10 10" version="1.1" xmlns="http://www.w3.org/2000/svg" xmlns:xlink="http://www.w3.org/1999/xlink">
    <!-- Generator: Sketch 49.2 (51160) - http://www.bohemiancoding.com/sketch -->
    <title>Group 6</title>
    <desc>Created with Sketch.</desc>
    <defs></defs>
    <g id="Views" stroke="none" stroke-width="1" fill="none" fill-rule="evenodd" stroke-linecap="round" stroke-linejoin="round">
        <g id="Overlays-3" transform="translate(-1248.000000, -131.000000)" stroke="#6CC69D" stroke-width="0.63">
            <g id="Group-6" transform="translate(1249.000000, 132.000000)">
                <polyline id="Shape" points="7.25294118 3.76470588 7.25294118 7.85359477 0.9 7.85359477 0.9 3.76470588"></polyline>
                <path d="M5.26764706,7.13202614 C5.26764706,7.23015948 5.18858824,7.30980392 5.09117647,7.30980392 L3.32647059,7.30980392 C3.22905882,7.30980392 3.15,7.23015948 3.15,7.13202614 L3.15,5.35424837 C3.15,5.25611503 3.22905882,5.17647059 3.32647059,5.17647059 L5.09117647,5.17647059 C5.18858824,5.17647059 5.26764706,5.25611503 5.26764706,5.35424837 L5.26764706,7.13202614 Z" id="Shape"></path>
                <path d="M0,2.37320297 L1.08352941,0.0553362989 C1.08352941,-0.0219970345 1.16435294,0.00431407665 1.26405882,0.00431407665 L7.40364706,0.00431407665 C7.50335294,0.00431407665 7.58417647,-0.0219970345 7.58417647,0.0553362989 L8.66770588,2.41764741" id="Shape"></path>
                <path d="M2.25,2.35294118 C2.25,2.95578562 2.73511765,3.44449673 3.33352941,3.44449673 C3.93194118,3.44449673 4.41705882,2.95578562 4.41705882,2.35294118" id="Shape"></path>
                <path d="M6.3,2.35294118 C6.3,2.95578562 6.78511765,3.44449673 7.38352941,3.44449673 C7.98194118,3.44449673 8.46705882,2.95578562 8.46705882,2.35294118" id="Shape"></path>
                <path d="M4.05,2.35294118 C4.05,2.95578562 4.53511765,3.44449673 5.13352941,3.44449673 C5.73194118,3.44449673 6.21705882,2.95578562 6.21705882,2.35294118" id="Shape"></path>
                <path d="M0,2.35294118 C0,2.95578562 0.485117647,3.44449673 1.08352941,3.44449673 C1.68194118,3.44449673 2.16705882,2.95578562 2.16705882,2.35294118" id="Shape"></path>
            </g>
        </g>
    </g>
</svg>