<?xml version="1.0" encoding="UTF-8"?>
<svg width="10px" height="10px" viewBox="0 0 10 10" version="1.1" xmlns="http://www.w3.org/2000/svg" xmlns:xlink="http://www.w3.org/1999/xlink">
    <!-- Generator: Sketch 49.2 (51160) - http://www.bohemiancoding.com/sketch -->
    <title>Group 3</title>
    <desc>Created with Sketch.</desc>
    <defs></defs>
    <g id="Views" stroke="none" stroke-width="1" fill="none" fill-rule="evenodd">
        <g id="Overlays-3" transform="translate(-1248.000000, -323.000000)" stroke="#6CC69D" stroke-width="0.7">
            <g id="Group-3" transform="translate(1249.000000, 324.000000)">
                <ellipse id="Oval" cx="3.99941463" cy="3.99363636" rx="1.17073171" ry="1.09090909"></ellipse>
                <path d="M7.19082927,4.86690909 C7.2977561,4.56327273 7.35765854,4.23981818 7.35765854,3.90290909 C7.35765854,3.56509091 7.29756098,3.24090909 7.19004878,2.93654545 L7.79219512,2.53690909 C7.88,2.47872727 7.9004878,2.36509091 7.83785366,2.28327273 L6.93209756,1.09854545 C6.86965854,1.01672727 6.74770732,0.997636364 6.65990244,1.056 L6.03941463,1.45454545 C5.72956098,1.23236364 5.36585366,1.058 4.97560976,0.948363636 L4.97560976,0.226 C4.97560976,0.0441818182 4.92878049,0.0441818182 4.82107317,0.0441818182 L3.26009756,0.0441818182 C3.15239024,0.0441818182 3.02439024,0.226 3.02439024,0.226 L3.02439024,0.948363636 C2.63414634,1.06163636 2.28643902,1.24345455 1.96917073,1.47672727 L1.31960976,1.04672727 C1.23121951,0.989090909 1.11473171,1.00927273 1.05287805,1.09145455 L0.160780488,2.28327273 C0.0989268293,2.36563636 0.121756098,2.47890909 0.210146341,2.53654545 L0.876878049,2.97072727 C0.777170732,3.26490909 0.722926829,3.57781818 0.722926829,3.90272727 C0.722926829,4.24527273 0.785365854,4.57381818 0.895804878,4.88181818 L0.288780488,5.28472727 C0.20097561,5.34290909 0.180682927,5.45654545 0.243121951,5.53836364 L1.14887805,6.72309091 C1.21131707,6.80490909 1.33326829,6.824 1.42107317,6.76563636 L2.01287805,6.35945455 C2.31980488,6.57763636 2.63414634,6.74909091 3.02439024,6.85745455 L3.02439024,7.55527273 C3.02439024,7.65563636 3.15239024,7.86236364 3.26009756,7.86236364 L4.82107317,7.86236364 C4.92878049,7.86236364 4.97560976,7.65563636 4.97560976,7.55527273 L4.97560976,6.85745455 C5.36585366,6.74763636 5.73131707,6.57272727 6.04156098,6.34981818 L6.61092683,6.71436364 C6.69931707,6.772 6.82595122,6.75181818 6.88780488,6.66963636 L7.78497561,5.47781818 C7.84682927,5.39545455 7.82653659,5.28218182 7.73814634,5.22454545 L7.19082927,4.86690909 Z" id="Shape"></path>
            </g>
        </g>
    </g>
</svg>