<?xml version="1.0" encoding="UTF-8"?>
<svg width="9px" height="8px" viewBox="0 0 9 8" version="1.1" xmlns="http://www.w3.org/2000/svg" xmlns:xlink="http://www.w3.org/1999/xlink">
    <!-- Generator: Sketch 49.2 (51160) - http://www.bohemiancoding.com/sketch -->
    <title>Shape</title>
    <desc>Created with Sketch.</desc>
    <defs></defs>
    <g id="Views" stroke="none" stroke-width="1" fill="none" fill-rule="evenodd">
        <g id="Overlays-4" transform="translate(-1049.000000, -196.000000)" fill="#6CC69D" fill-rule="nonzero">
            <path d="M1057.93981,200.970558 C1057.8732,200.833726 1057.75439,200.729499 1057.59957,200.684353 C1057.45105,200.641993 1057.29833,200.686025 1057.15941,200.734515 C1056.97699,200.798055 1056.79697,200.872463 1056.60435,200.905068 C1056.54044,200.90897 1056.47773,200.905904 1056.41442,200.900331 C1056.48913,200.837906 1056.55934,200.770744 1056.61845,200.692713 C1056.68926,200.598798 1056.74386,200.502374 1056.79127,200.397033 C1056.81077,200.352444 1056.82817,200.308133 1056.84288,200.262429 C1056.86958,200.176874 1056.87078,200.08491 1056.86478,199.996568 C1056.85758,199.889554 1056.83027,199.779196 1056.77807,199.683887 C1056.74656,199.625922 1056.70666,199.574644 1056.65805,199.527826 C1056.60105,199.47209 1056.53384,199.441713 1056.45793,199.414124 C1056.42103,199.400468 1056.37632,199.396846 1056.33401,199.396846 C1056.31781,199.396846 1056.30191,199.397403 1056.28691,199.398239 C1056.196,199.403255 1056.11229,199.436418 1056.03218,199.474319 C1055.99407,199.492433 1055.96137,199.523367 1055.92837,199.548727 C1055.90826,199.564612 1055.88726,199.580775 1055.86716,199.59666 C1055.72524,199.709526 1055.59022,199.829916 1055.44741,199.940553 C1055.34419,200.009944 1055.23258,200.067353 1055.11617,200.115286 C1055.07266,200.130056 1055.02916,200.142875 1054.98475,200.155416 C1054.98445,200.155416 1054.98445,200.155695 1054.98445,200.155695 C1054.97905,200.154859 1054.97365,200.153465 1054.96855,200.15235 C1054.98625,200.137023 1055.00665,200.123925 1055.02376,200.108319 C1055.11227,200.02778 1055.18938,199.936651 1055.26679,199.846358 C1055.3553,199.742132 1055.44261,199.63679 1055.51222,199.520301 C1055.64363,199.300701 1055.71774,199.064658 1055.77055,198.820254 C1055.80085,198.68175 1055.81495,198.538229 1055.82095,198.397216 C1055.82635,198.26317 1055.80625,198.129682 1055.78105,197.997866 C1055.75915,197.881934 1055.73064,197.767396 1055.69254,197.655367 C1055.65863,197.554484 1055.61783,197.456109 1055.57732,197.357456 C1055.52812,197.238181 1055.47501,197.119741 1055.4099,197.007154 C1055.3808,196.956991 1055.3451,196.911288 1055.30879,196.865305 C1055.25778,196.800094 1055.20498,196.736276 1055.14437,196.67831 C1055.05046,196.588296 1054.93645,196.516118 1054.82903,196.441152 C1054.72642,196.368974 1054.61871,196.302648 1054.50589,196.244682 C1054.37928,196.179471 1054.23856,196.135439 1054.10024,196.097817 C1053.96673,196.061867 1053.82751,196.03595 1053.68919,196.020622 C1053.55688,196.005852 1053.42486,196.001951 1053.29195,196.000279 C1053.27604,196 1053.26014,196 1053.24424,196 C1053.11583,196 1052.98981,196.006131 1052.86169,196.023409 C1052.72278,196.041524 1052.58836,196.065769 1052.45485,196.105063 C1052.31893,196.145472 1052.18931,196.209847 1052.0627,196.270599 C1051.81667,196.389318 1051.60964,196.563493 1051.41762,196.746587 C1051.37351,196.787832 1051.33481,196.834093 1051.29611,196.880633 C1051.2463,196.939992 1051.19769,197.001859 1051.15779,197.068185 C1051.08518,197.188018 1051.02187,197.312031 1050.96877,197.441061 C1050.92076,197.558107 1050.89226,197.680448 1050.86825,197.803068 C1050.84245,197.934884 1050.82565,198.070044 1050.82025,198.20409 C1050.81545,198.326988 1050.81245,198.449608 1050.81725,198.572506 C1050.82265,198.711011 1050.85535,198.849516 1050.88746,198.984119 C1050.94446,199.228522 1051.04077,199.471811 1051.16649,199.692526 C1051.2205,199.787835 1051.2853,199.876735 1051.35491,199.962847 C1051.43682,200.064287 1051.51873,200.169629 1051.61624,200.259085 C1051.62585,200.267724 1051.63605,200.275527 1051.64595,200.284167 C1051.63695,200.287789 1051.62795,200.291412 1051.61924,200.295314 C1051.57604,200.284445 1051.53103,200.279708 1051.48513,200.290576 C1051.41222,200.307576 1051.34021,200.323739 1051.2664,200.335444 C1051.2169,200.337673 1051.16859,200.335723 1051.11968,200.332378 C1051.06658,200.322625 1051.01617,200.308412 1050.96517,200.290576 C1050.87245,200.250725 1050.78454,200.204185 1050.70053,200.149842 C1050.60542,200.088532 1050.51511,200.014682 1050.4125,199.965077 C1050.28498,199.902931 1050.13797,199.855555 1049.99425,199.855555 C1049.89434,199.855555 1049.79622,199.878407 1049.70681,199.9347 C1049.45808,200.090762 1049.40438,200.418491 1049.49829,200.668468 C1049.54269,200.785514 1049.5991,200.903954 1049.67591,201.00623 C1049.73172,201.081195 1049.79112,201.150865 1049.86883,201.207159 C1049.92944,201.250076 1049.98945,201.28937 1050.05546,201.324762 C1050.20727,201.406973 1050.36719,201.476922 1050.53341,201.529036 C1050.4635,201.62741 1050.3948,201.726899 1050.31919,201.821372 C1050.28678,201.856765 1050.25288,201.889371 1050.21597,201.920583 C1050.16977,201.949566 1050.12116,201.973811 1050.07076,201.995548 C1050.03685,202.006974 1050.00265,202.015892 1049.96724,202.022301 C1049.91444,202.025924 1049.86163,202.025088 1049.80913,202.020908 C1049.68101,201.996941 1049.55019,201.954025 1049.41908,201.970188 C1049.33537,201.980778 1049.25976,202.001679 1049.18625,202.041809 C1049.12624,202.07553 1049.07464,202.127364 1049.04493,202.185887 C1048.98373,202.307114 1048.98853,202.43475 1049.03833,202.558763 C1049.06084,202.615056 1049.08514,202.670235 1049.11844,202.721513 C1049.15235,202.774462 1049.19915,202.822395 1049.24206,202.87005 C1049.27356,202.906 1049.31407,202.935819 1049.35247,202.964801 C1049.40528,203.005768 1049.45988,203.041439 1049.51989,203.072372 C1049.6225,203.125322 1049.74192,203.159042 1049.85593,203.18496 C1049.93064,203.201402 1050.00865,203.207533 1050.08516,203.213664 C1050.14577,203.21868 1050.20637,203.21868 1050.26758,203.213664 C1050.53731,203.191648 1050.79865,203.131453 1051.04437,203.025554 C1051.11638,202.99462 1051.18809,202.9609 1051.2559,202.922442 C1051.33841,202.875066 1051.41462,202.8171 1051.48873,202.759135 C1051.54934,202.711201 1051.60214,202.654351 1051.65615,202.600286 C1051.67865,202.577713 1051.69785,202.552632 1051.71886,202.528944 C1051.71736,202.547894 1051.71466,202.566566 1051.71346,202.585516 C1051.70746,202.691415 1051.70625,202.798429 1051.71586,202.90377 C1051.72726,203.031128 1051.75156,203.15319 1051.79237,203.274974 C1051.82867,203.384217 1051.86947,203.499033 1051.93848,203.593785 C1052.01049,203.692995 1052.0948,203.788026 1052.19741,203.861319 C1052.27812,203.919842 1052.35373,203.967218 1052.45575,203.989791 C1052.53526,204.006791 1052.61146,204.000381 1052.69037,203.986447 C1052.76058,203.973627 1052.82239,203.938514 1052.877,203.898662 C1052.95171,203.844598 1052.99641,203.754027 1053.01711,203.670144 C1053.03422,203.602145 1053.03422,203.52718 1053.03302,203.457789 C1053.03002,203.251564 1052.99461,203.044783 1053.01621,202.838559 C1053.03122,202.756348 1053.05282,202.675252 1053.08552,202.597221 C1053.10622,202.553468 1053.12723,202.509715 1053.14793,202.465683 C1053.15393,202.47488 1053.16023,202.484355 1053.16653,202.493551 C1053.23074,202.587188 1053.30005,202.67776 1053.37326,202.766102 C1053.44977,202.85946 1053.52718,202.953654 1053.61329,203.039209 C1053.68619,203.111945 1053.7654,203.178829 1053.84551,203.244319 C1054.02734,203.393134 1054.25596,203.507394 1054.48459,203.578736 C1054.72042,203.651472 1054.97875,203.684078 1055.22718,203.666521 C1055.31029,203.660947 1055.3928,203.650079 1055.47201,203.624719 C1055.55812,203.597129 1055.64063,203.562851 1055.71984,203.521049 C1055.87496,203.438281 1055.99647,203.317333 1056.07748,203.169075 C1056.12369,203.082962 1056.15009,202.998522 1056.15879,202.903213 C1056.16539,202.836887 1056.15279,202.768052 1056.12009,202.708972 C1056.08438,202.644875 1056.02558,202.5975 1055.96197,202.559042 C1055.89476,202.518354 1055.80805,202.490765 1055.72974,202.474601 C1055.64933,202.458438 1055.56622,202.451471 1055.48401,202.442553 C1055.44981,202.436979 1055.4168,202.429733 1055.3841,202.41998 C1055.3469,202.401587 1055.31209,202.380407 1055.27789,202.357834 C1055.22808,202.318818 1055.18308,202.278131 1055.14137,202.231591 C1055.08436,202.157462 1055.03696,202.076923 1054.99465,201.994433 C1055.04926,202.028154 1055.10597,202.059645 1055.16387,202.086677 C1055.28149,202.141856 1055.4057,202.192018 1055.53382,202.221837 C1055.66403,202.252771 1055.79695,202.275901 1055.93047,202.290114 C1056.05528,202.303491 1056.1789,202.310458 1056.30401,202.31213 C1056.43693,202.313802 1056.57254,202.294573 1056.70306,202.275065 C1056.81347,202.259181 1056.92119,202.215428 1057.0238,202.178084 C1057.14441,202.134053 1057.26203,202.083611 1057.37784,202.029269 C1057.49606,201.972975 1057.60587,201.906649 1057.70098,201.8197 C1057.74268,201.781521 1057.77809,201.736375 1057.81319,201.693458 C1057.8423,201.658065 1057.8702,201.621837 1057.8927,201.582542 C1057.93561,201.507577 1057.96531,201.428153 1057.98181,201.344827 C1057.99322,201.288534 1058.00432,201.230011 1057.99832,201.172602 C1057.99142,201.096801 1057.97281,201.038835 1057.93981,200.970558 Z M1056.2305,199.859735 C1056.2476,199.848867 1056.26471,199.839391 1056.28301,199.830474 C1056.29441,199.826851 1056.30611,199.823228 1056.31781,199.820162 C1056.32171,199.820162 1056.32591,199.820162 1056.32981,199.820441 C1056.33491,199.825179 1056.34002,199.829916 1056.34512,199.834932 C1056.35622,199.850539 1056.36582,199.866145 1056.37542,199.882866 C1056.38712,199.914914 1056.39582,199.946962 1056.40302,199.980404 C1056.40602,200.019698 1056.40632,200.058992 1056.40422,200.098565 C1056.39462,200.142039 1056.38112,200.183284 1056.36432,200.225644 C1056.32441,200.306461 1056.27881,200.381984 1056.223,200.455277 C1056.15909,200.525226 1056.08918,200.587929 1056.01268,200.646452 C1055.98327,200.666517 1055.95267,200.685746 1055.92236,200.704975 C1055.90826,200.696336 1055.89386,200.68909 1055.88006,200.680173 C1055.80265,200.619699 1055.73244,200.554209 1055.66133,200.487325 C1055.61993,200.44831 1055.57372,200.415983 1055.52722,200.383934 C1055.62923,200.325133 1055.72734,200.259921 1055.82035,200.186628 C1055.95747,200.0785 1056.09039,199.964519 1056.2305,199.859735 Z M1050.10076,200.798891 C1050.05576,200.736188 1050.01795,200.670976 1049.98285,200.602978 C1049.96274,200.553094 1049.94654,200.50321 1049.93484,200.451097 C1049.93454,200.432425 1049.93484,200.413753 1049.93604,200.395082 C1049.94084,200.374738 1049.94684,200.35523 1049.95404,200.336001 C1049.95794,200.329034 1049.96214,200.322346 1049.96634,200.315658 C1049.96904,200.313149 1049.97175,200.31092 1049.97445,200.308412 C1049.97475,200.308133 1049.97505,200.308133 1049.97535,200.307855 C1049.97565,200.307855 1049.97595,200.307855 1049.97595,200.307576 C1049.98855,200.307297 1050.00115,200.307297 1050.01375,200.307576 C1050.04945,200.315379 1050.08396,200.324575 1050.11876,200.336001 C1050.21567,200.381705 1050.30239,200.4419 1050.39,200.501538 C1050.48331,200.565077 1050.57722,200.624994 1050.68163,200.672091 C1050.75244,200.704139 1050.82535,200.731729 1050.89916,200.755974 C1050.94386,200.770465 1050.99037,200.778547 1051.03717,200.784678 C1050.98917,200.849053 1050.94266,200.914822 1050.90036,200.983099 C1050.86885,201.033819 1050.83435,201.082588 1050.80225,201.132751 C1050.71914,201.115473 1050.63813,201.092342 1050.55802,201.063359 C1050.4248,201.008459 1050.29278,200.946035 1050.17457,200.867168 C1050.14787,200.845709 1050.12386,200.823136 1050.10076,200.798891 Z M1055.70484,202.89959 C1055.70484,202.89959 1055.70484,202.899311 1055.70484,202.89959 L1055.70454,202.899311 C1055.70484,202.899311 1055.70484,202.899311 1055.70484,202.89959 Z M1057.49305,201.228617 C1057.48555,201.264846 1057.47505,201.300238 1057.46185,201.335352 C1057.43455,201.387466 1057.40064,201.436792 1057.36404,201.483611 C1057.33794,201.511479 1057.31033,201.537953 1057.28123,201.563035 C1057.17502,201.632148 1057.0586,201.684261 1056.94039,201.733588 C1056.79067,201.790996 1056.64155,201.843945 1056.48103,201.87042 C1056.30671,201.887698 1056.13389,201.882961 1055.95987,201.865404 C1055.80445,201.842273 1055.65233,201.808274 1055.50471,201.756718 C1055.4093,201.715752 1055.31989,201.66754 1055.23198,201.612361 C1055.14287,201.556625 1055.05856,201.495315 1054.96945,201.439579 C1054.92714,201.413104 1054.88694,201.386072 1054.84103,201.364614 C1054.77863,201.33591 1054.70932,201.302747 1054.63671,201.31055 C1054.5602,201.318353 1054.50589,201.337024 1054.44709,201.385515 C1054.40778,201.417563 1054.38408,201.469955 1054.36998,201.515102 C1054.35798,201.552724 1054.35528,201.593968 1054.35558,201.633262 C1054.35678,201.717146 1054.37208,201.803815 1054.39728,201.883797 C1054.41498,201.941763 1054.44469,201.996941 1054.47199,202.051563 C1054.49389,202.095595 1054.51489,202.140462 1054.5386,202.183937 C1054.5872,202.271721 1054.63731,202.359506 1054.69792,202.440602 C1054.77803,202.54873 1054.87854,202.633728 1054.99015,202.713152 C1055.08166,202.778364 1055.18308,202.833543 1055.29709,202.85723 C1055.3937,202.877296 1055.49241,202.88259 1055.59082,202.892066 C1055.62503,202.897918 1055.65863,202.905721 1055.69164,202.915475 C1055.68744,202.930524 1055.68234,202.945294 1055.67664,202.960064 C1055.66013,202.991833 1055.64153,203.022767 1055.62083,203.052307 C1055.59863,203.075717 1055.57492,203.097454 1055.54972,203.118076 C1055.49511,203.154026 1055.43721,203.184402 1055.3766,203.210877 C1055.32499,203.228991 1055.27279,203.24404 1055.21818,203.253794 C1055.10507,203.263269 1054.99315,203.260204 1054.87974,203.249892 C1054.77533,203.234007 1054.67391,203.20809 1054.5746,203.175206 C1054.44079,203.118912 1054.31147,203.052029 1054.19146,202.972883 C1054.00303,202.82992 1053.84761,202.656859 1053.6979,202.47906 C1053.63219,202.399357 1053.56918,202.317982 1053.51427,202.231034 C1053.48397,202.183658 1053.45427,202.135725 1053.42636,202.086398 C1053.37536,201.998056 1053.32705,201.908878 1053.21424,201.877945 C1053.03362,201.828339 1052.8947,201.965172 1052.80259,202.088628 C1052.74438,202.166937 1052.71108,202.260853 1052.66667,202.346129 C1052.63817,202.400193 1052.60966,202.455372 1052.59076,202.51278 C1052.57546,202.561271 1052.56646,202.611434 1052.55686,202.66076 C1052.53556,202.779478 1052.53135,202.895688 1052.53676,203.016079 C1052.54486,203.190533 1052.57876,203.363037 1052.56466,203.537491 C1052.54366,203.526901 1052.52325,203.515197 1052.50375,203.502378 C1052.45065,203.461133 1052.40084,203.416822 1052.35553,203.368053 C1052.32493,203.327366 1052.29913,203.285842 1052.27602,203.241253 C1052.23252,203.13619 1052.19771,203.028619 1052.17581,202.917426 C1052.15481,202.724857 1052.16141,202.530895 1052.18631,202.338605 C1052.20672,202.209297 1052.22892,202.07971 1052.24782,201.949844 C1052.25682,201.889092 1052.25922,201.838929 1052.22412,201.78375 C1052.19381,201.735817 1052.14401,201.699867 1052.0858,201.685097 C1052.042,201.673671 1051.99669,201.678966 1051.95378,201.691786 C1051.86077,201.675343 1051.76386,201.712965 1051.71106,201.791275 C1051.63335,201.907485 1051.55684,202.025646 1051.47013,202.135725 C1051.36421,202.257508 1051.2481,202.372882 1051.11698,202.471814 C1051.07828,202.499125 1051.03897,202.525321 1050.99727,202.548173 C1050.93336,202.582172 1050.86765,202.612827 1050.80045,202.641531 C1050.65673,202.691415 1050.51061,202.725693 1050.35939,202.747987 C1050.31229,202.753004 1050.26518,202.757184 1050.21747,202.758577 C1050.16197,202.759971 1050.10706,202.755512 1050.05246,202.749659 C1049.96124,202.734611 1049.87213,202.712595 1049.78482,202.683055 C1049.74672,202.665498 1049.71041,202.64599 1049.67471,202.623696 C1049.6264,202.585238 1049.5835,202.543993 1049.54299,202.498568 C1049.53009,202.481011 1049.51839,202.462897 1049.50819,202.443668 C1049.50669,202.439487 1049.50489,202.435586 1049.50339,202.431406 C1049.5763,202.446454 1049.64801,202.466798 1049.72212,202.476273 C1049.86043,202.49383 1049.99065,202.496617 1050.12776,202.463454 C1050.23998,202.436422 1050.35039,202.3818 1050.4485,202.324949 C1050.58802,202.24441 1050.68013,202.118725 1050.77224,201.996105 C1050.84065,201.906091 1050.90426,201.813569 1050.96817,201.721326 C1051.03417,201.626295 1051.09988,201.532101 1051.16109,201.43512 C1051.2169,201.346221 1051.2697,201.255928 1051.32431,201.166471 C1051.37321,201.086769 1051.42812,201.011525 1051.48663,200.937953 C1051.51603,200.905904 1051.54514,200.874971 1051.57604,200.844316 C1051.60034,200.820349 1051.62795,200.79917 1051.65555,200.778826 C1051.70716,200.745663 1051.76056,200.71668 1051.81697,200.692156 C1051.86977,200.675435 1051.92378,200.66373 1051.97869,200.654534 C1052.0639,200.64896 1052.14761,200.653977 1052.23342,200.66178 C1052.24572,200.662894 1052.25862,200.656763 1052.27152,200.655091 C1052.34803,200.660108 1052.42574,200.638649 1052.48335,200.584864 C1052.58836,200.487325 1052.58956,200.322903 1052.48335,200.225086 C1052.36844,200.119466 1052.21062,200.068467 1052.0789,199.98347 C1052.02159,199.939995 1051.96579,199.893734 1051.91628,199.843293 C1051.85567,199.781704 1051.80047,199.716493 1051.74466,199.651282 C1051.64955,199.532285 1051.57064,199.405206 1051.50373,199.270882 C1051.41792,199.070789 1051.35551,198.865679 1051.31561,198.653324 C1051.2916,198.442362 1051.30121,198.225827 1051.32671,198.015144 C1051.35401,197.858804 1051.39482,197.706644 1051.45512,197.558664 C1051.52083,197.426291 1051.59464,197.300605 1051.68435,197.180215 C1051.80677,197.043104 1051.94628,196.920763 1052.0957,196.809569 C1052.23102,196.722899 1052.37414,196.651557 1052.52355,196.588017 C1052.59736,196.562936 1052.67117,196.541478 1052.74798,196.524478 C1052.81099,196.510544 1052.8749,196.50079 1052.9388,196.49243 C1053.06722,196.479889 1053.19443,196.478774 1053.32345,196.481561 C1053.44527,196.484069 1053.56648,196.487413 1053.68799,196.499118 C1053.84971,196.523921 1054.00693,196.560149 1054.16085,196.613377 C1054.34687,196.692802 1054.50979,196.803995 1054.67151,196.919369 C1054.74322,196.973434 1054.80743,197.031121 1054.86654,197.097168 C1054.90224,197.141478 1054.93675,197.186625 1054.96825,197.233722 C1054.99945,197.279704 1055.02406,197.330703 1055.04776,197.380308 C1055.10387,197.50878 1055.15427,197.639482 1055.19808,197.771577 C1055.24128,197.901442 1055.26979,198.035209 1055.29139,198.169812 C1055.30609,198.309431 1055.29739,198.4471 1055.27999,198.585604 C1055.24818,198.782632 1055.19418,198.979381 1055.11527,199.164983 C1055.04236,199.307389 1054.95055,199.436418 1054.84944,199.562104 C1054.71412,199.719558 1054.5656,199.865587 1054.39698,199.992109 C1054.31927,200.044222 1054.23676,200.089647 1054.15965,200.142875 C1054.10444,200.182169 1054.06154,200.22007 1054.04264,200.284724 C1054.02434,200.346034 1054.03364,200.412081 1054.06814,200.46726 C1054.10144,200.519652 1054.15665,200.559504 1054.22086,200.575946 C1054.23706,200.580126 1054.25716,200.578733 1054.27607,200.579847 C1054.32737,200.601306 1054.39158,200.613568 1054.44229,200.594896 C1054.46689,200.585978 1054.49059,200.578733 1054.51549,200.573159 C1054.5896,200.570372 1054.66461,200.577339 1054.73842,200.585978 C1054.83863,200.601027 1054.93435,200.620256 1055.02886,200.652305 C1055.10627,200.687418 1055.18098,200.725876 1055.25118,200.77158 C1055.31719,200.827316 1055.3769,200.889184 1055.44201,200.946592 C1055.51972,201.015984 1055.60823,201.075621 1055.69794,201.131915 C1055.77385,201.179291 1055.85606,201.218585 1055.93977,201.252305 C1056.00217,201.277665 1056.06398,201.301353 1056.12759,201.322812 C1056.1852,201.342598 1056.2476,201.350401 1056.30881,201.358204 C1056.37482,201.366565 1056.44023,201.374089 1056.50654,201.377433 C1056.56954,201.38022 1056.63315,201.372974 1056.69496,201.364056 C1056.78887,201.351237 1056.87798,201.329221 1056.96709,201.298845 C1057.0526,201.270141 1057.13811,201.23865 1057.22362,201.209388 C1057.30073,201.182356 1057.37694,201.153652 1057.45675,201.135538 C1057.45885,201.135538 1057.46095,201.135538 1057.46335,201.135538 C1057.46545,201.136095 1057.46725,201.136653 1057.46935,201.136931 C1057.47085,201.138325 1057.47205,201.139439 1057.47355,201.140833 C1057.47625,201.145013 1057.47865,201.149472 1057.48105,201.153652 C1057.48615,201.167307 1057.49035,201.18152 1057.49395,201.195733 C1057.49425,201.207438 1057.49365,201.218027 1057.49305,201.228617 Z M1054.04684,198.611243 C1053.91092,198.611243 1053.79751,198.505902 1053.79751,198.379659 C1053.79751,198.253416 1053.91092,198.148075 1054.04684,198.148075 C1054.18275,198.148075 1054.29617,198.253416 1054.29617,198.379659 C1054.29617,198.505902 1054.18275,198.611243 1054.04684,198.611243 Z M1053.02011,198.32671 C1053.02011,198.443756 1052.9151,198.541294 1052.78909,198.541294 C1052.66307,198.541294 1052.55806,198.443756 1052.55806,198.32671 C1052.55806,198.209664 1052.66307,198.112125 1052.78909,198.112125 C1052.9151,198.112125 1053.02011,198.209664 1053.02011,198.32671 Z" id="Shape"></path>
        </g>
    </g>
</svg>