<?xml version="1.0" encoding="UTF-8"?>
<svg width="10px" height="9px" viewBox="0 0 10 9" version="1.1" xmlns="http://www.w3.org/2000/svg" xmlns:xlink="http://www.w3.org/1999/xlink">
    <!-- Generator: Sketch 49.2 (51160) - http://www.bohemiancoding.com/sketch -->
    <title>Shape</title>
    <desc>Created with Sketch.</desc>
    <defs></defs>
    <g id="Views" stroke="none" stroke-width="1" fill="none" fill-rule="evenodd">
        <g id="Overlays-3" transform="translate(-1048.000000, -324.000000)" fill="#6CC69D" fill-rule="nonzero">
            <path d="M1053.97933,326.454545 L1049.70838,326.454545 L1049.70838,325.636364 L1053.97933,325.636364 L1053.97933,326.454545 Z M1055.68771,329.896636 L1055.68771,332.5 C1055.68771,332.776142 1055.46385,333 1055.18771,333 L1048.5,333 C1048.22386,333 1048,332.776142 1048,332.5 L1048,324.5 C1048,324.223858 1048.22386,324 1048.5,324 L1055.18771,324 C1055.46385,324 1055.68771,324.223858 1055.68771,324.5 L1055.68771,325.467 L1057.62303,327.320736 C1057.82245,327.51175 1057.82926,327.828259 1057.63825,328.027679 C1057.63328,328.032861 1057.62821,328.037936 1057.62303,328.0429 L1055.68771,329.896636 Z M1055.72444,328.704545 L1054.61997,327.646636 L1052.69804,329.487545 L1052.69804,330.545455 L1053.80251,330.545455 L1055.72444,328.704545 Z M1055.68771,326.623909 L1055.22388,327.068182 L1056.32835,328.126091 L1056.79218,327.681818 L1055.68771,326.623909 Z M1054.83352,330.714818 L1054.15615,331.363636 L1049.70838,331.363636 L1049.70838,330.545455 L1051.84385,330.545455 L1051.84385,329.727273 L1049.70838,329.727273 L1049.70838,328.909091 L1052.09413,328.909091 L1052.94832,328.090909 L1049.70838,328.090909 L1049.70838,327.272727 L1053.80251,327.272727 L1054.83352,326.285182 L1054.83352,324.818182 L1048.85419,324.818182 L1048.85419,332.181818 L1054.83352,332.181818 L1054.83352,330.714818 Z" id="Shape"></path>
        </g>
    </g>
</svg>