<?xml version="1.0" encoding="UTF-8"?>
<svg width="10px" height="10px" viewBox="0 0 10 10" version="1.1" xmlns="http://www.w3.org/2000/svg" xmlns:xlink="http://www.w3.org/1999/xlink">
    <!-- Generator: Sketch 49.2 (51160) - http://www.bohemiancoding.com/sketch -->
    <title>Group 19</title>
    <desc>Created with Sketch.</desc>
    <defs></defs>
    <g id="Views" stroke="none" stroke-width="1" fill="none" fill-rule="evenodd" stroke-linecap="round" stroke-linejoin="round">
        <g id="Overlays-4" transform="translate(-1048.000000, -259.000000)" stroke="#6CC69D" stroke-width="0.7425">
            <g id="Group-19" transform="translate(1049.000000, 260.000000)">
                <path d="M7.72093023,3.16936585 L7.72093023,7.55453659 C7.72093023,7.66497561 7.6375814,7.85229268 7.53488372,7.85229268 L0.465116279,7.85229268 C0.362418605,7.85229268 0.279069767,7.66517073 0.279069767,7.55453659 L0.279069767,3.16936585" id="Shape"></path>
                <path d="M5.30232558,1.02302439 C5.30232558,1.13073171 5.21897674,1.21814634 5.11627907,1.21814634 L2.88372093,1.21814634 C2.78102326,1.21814634 2.69767442,1.13073171 2.69767442,1.02302439 L2.69767442,0.242536585 C2.69767442,0.134829268 2.78102326,0.0474146341 2.88372093,0.0474146341 L5.11627907,0.0474146341 C5.21897674,0.0474146341 5.30232558,0.134829268 5.30232558,0.242536585 L5.30232558,1.02302439 Z" id="Shape"></path>
                <path d="M6.79069767,3.75473171 L1.20930233,3.75473171 C0.592744186,3.75473171 0.0930232558,3.128 0.0930232558,2.48136585 L0.0930232558,1.44565854 C0.0930232558,1.33795122 0.176372093,1.41307317 0.279069767,1.41307317 L7.72093023,1.41307317 C7.82362791,1.41307317 7.90697674,1.3377561 7.90697674,1.44565854 L7.90697674,2.48136585 C7.90697674,3.128 7.40725581,3.75473171 6.79069767,3.75473171 Z" id="Shape"></path>
                <path d="M4.93023256,3.94985366 L4.93023256,4.95297561 C4.93023256,5.06068293 4.84688372,5.31570732 4.74418605,5.31570732 L3.25581395,5.31570732 C3.15311628,5.31570732 3.06976744,5.06068293 3.06976744,4.95297561 L3.06976744,3.94985366" id="Shape"></path>
            </g>
        </g>
    </g>
</svg>