<?xml version="1.0" encoding="UTF-8"?>
<svg width="10px" height="9px" viewBox="0 0 10 9" version="1.1" xmlns="http://www.w3.org/2000/svg" xmlns:xlink="http://www.w3.org/1999/xlink">
    <!-- Generator: Sketch 49.2 (51160) - http://www.bohemiancoding.com/sketch -->
    <title>Group 4</title>
    <desc>Created with Sketch.</desc>
    <defs></defs>
    <g id="Views" stroke="none" stroke-width="1" fill="none" fill-rule="evenodd">
        <g id="Overlays-3" transform="translate(-1048.000000, -260.000000)" stroke="#6CC69D" stroke-width="0.7">
            <g id="Group-4" transform="translate(1049.000000, 261.000000)">
                <path d="M7.84496321,7 L0.157464821,7 C0.0409600343,7 0.00260978462,6.78917031 0.00260978462,6.65704215 L0.00260978462,0.150706354 C0.00260978462,0.0960468048 -0.00938602807,0.0452915086 0.0180589373,0.00481056395 C0.0282372026,-0.0101899892 0.0256926363,0.0276196242 0.0387789774,0.0154958894 C0.075129925,-0.0179984963 0.107300514,0.0132355321 0.157646576,0.0132355321 L7.84514496,0.0132355321 C7.96164975,0.0132355321 8,0.0185781949 8,0.150706354 L8,6.65704215 C7.99981825,6.78917031 7.96128624,7 7.84496321,7 Z" id="Shape"></path>
                <path d="M0,0 L3.13689305,3.38770235 C3.62883054,3.89955084 4.41495352,3.89595752 4.90272972,3.37951756 L8,0.0235562096" id="Shape"></path>
                <path d="M8,6.46153846 L5.5,2.69230769" id="Shape"></path>
                <path d="M0,6.46153846 L2.5,2.69230769" id="Shape"></path>
            </g>
        </g>
    </g>
</svg>