<?xml version="1.0" encoding="UTF-8"?>
<svg width="9px" height="10px" viewBox="0 0 9 10" version="1.1" xmlns="http://www.w3.org/2000/svg" xmlns:xlink="http://www.w3.org/1999/xlink">
    <!-- Generator: Sketch 49.2 (51160) - http://www.bohemiancoding.com/sketch -->
    <title>Group 2</title>
    <desc>Created with Sketch.</desc>
    <defs></defs>
    <g id="Views" stroke="none" stroke-width="1" fill="none" fill-rule="evenodd" stroke-linecap="round">
        <g id="Overlays-4" transform="translate(-1249.000000, -259.000000)" stroke="#6CC69D" stroke-width="0.7425">
            <g id="Group-2" transform="translate(1250.000000, 260.000000)">
                <path d="M6.9364,2.44260465 C6.9364,2.44260465 6.9364,2.78325581 6.9364,2.87367442 L6.9364,7.65432558 C6.9364,7.76706977 6.8372,7.85934884 6.716,7.85934884 L0.2324,7.85934884 C0.1392,7.85934884 0.0636,7.78902326 0.0636,7.70232558 L0.0636,0.147348837 C0.0636,0.0909767442 0.1126,0.0453953488 0.1732,0.0453953488 L4.18,0.0453953488" id="Shape"></path>
                <path d="M4.3,0.213581395 C4.3,0.12372093 4.2998,0.0999069767 4.3706,0.160930233 L6.8126,2.29023256 C6.8832,2.35106977 6.8474,2.40093023 6.7556,2.40148837 L4.4204,2.41767442 C4.3262,2.41823256 4.3,2.34530233 4.3,2.256 L4.3,0.213581395 Z" id="Shape"></path>
            </g>
        </g>
    </g>
</svg>