<?xml version="1.0" encoding="UTF-8"?>
<svg width="14px" height="18px" viewBox="0 0 14 18" version="1.1" xmlns="http://www.w3.org/2000/svg" xmlns:xlink="http://www.w3.org/1999/xlink">
    <!-- Generator: Sketch 49 (51002) - http://www.bohemiancoding.com/sketch -->
    <title>Shape</title>
    <desc>Created with Sketch.</desc>
    <defs></defs>
    <g id="Symbols" stroke="none" stroke-width="1" fill="none" fill-rule="evenodd">
        <g id="TABLEEE" transform="translate(-297.000000, -907.000000)" fill="#B1BBC7" fill-rule="nonzero">
            <path d="M309.732369,914.095768 C309.607778,914.01559 309.462421,913.975501 309.317064,913.995546 C309.296299,913.995546 309.275534,913.995546 309.254768,913.995546 L305.890797,913.995546 L306.264572,907.621381 C306.264572,907.621381 306.264572,907.621381 306.264572,907.601336 C306.264572,907.581292 306.264572,907.561247 306.264572,907.541203 C306.264572,907.521158 306.264572,907.501114 306.264572,907.481069 C306.264572,907.461024 306.264572,907.461024 306.243806,907.44098 C306.243806,907.420935 306.223041,907.400891 306.223041,907.380846 C306.223041,907.360802 306.202276,907.360802 306.202276,907.340757 C306.181511,907.320713 306.181511,907.300668 306.160745,907.280624 C306.160745,907.260579 306.13998,907.260579 306.13998,907.240535 C306.119215,907.22049 306.09845,907.200445 306.09845,907.180401 C306.09845,907.180401 306.077684,907.160356 306.077684,907.160356 C306.056919,907.140312 306.036154,907.120267 306.015389,907.100223 C306.015389,907.100223 306.015389,907.100223 306.015389,907.100223 C306.015389,907.100223 305.994623,907.100223 305.994623,907.080178 C305.973858,907.060134 305.953093,907.060134 305.911562,907.040089 C305.890797,907.040089 305.890797,907.020045 305.870032,907.020045 C305.849266,907.020045 305.828501,907 305.807736,907 C305.786971,907 305.766205,907 305.74544,907 C305.724675,907 305.70391,907 305.70391,907 C305.70391,907 305.683144,907 305.683144,907 C305.662379,907 305.662379,907 305.641614,907 C305.620849,907 305.579318,907 305.558553,907 C305.558553,907 305.558553,907 305.537788,907 C305.496257,907 305.475492,907.020045 305.433961,907.020045 C305.433961,907.020045 305.433961,907.020045 305.433961,907.020045 C305.392431,907.040089 305.371666,907.040089 305.330135,907.060134 C305.330135,907.060134 305.30937,907.080178 305.30937,907.080178 C305.288605,907.100223 305.267839,907.120267 305.226309,907.140312 C305.226309,907.140312 305.205544,907.160356 305.205544,907.160356 C305.184778,907.180401 305.164013,907.200445 305.143248,907.22049 C305.143248,907.22049 305.143248,907.22049 305.143248,907.22049 L298.103826,917.042316 C298.103826,917.042316 298.103826,917.042316 298.103826,917.042316 C298.083061,917.062361 298.062296,917.10245 298.041531,917.142539 C298.041531,917.142539 298.041531,917.142539 298.041531,917.162584 C298.041531,917.182628 298.020765,917.202673 298.020765,917.222717 C298.020765,917.242762 298,917.262806 298,917.262806 C298,917.262806 298,917.282851 298,917.282851 C298,917.32294 298,917.342984 298,917.383073 C298,917.383073 298,917.383073 298,917.383073 C298,917.403118 298,917.403118 298,917.423163 C298,917.443207 298,917.483296 298,917.503341 C298,917.523385 298.020765,917.54343 298.020765,917.563474 C298.020765,917.583519 298.020765,917.603563 298.041531,917.623608 C298.041531,917.643653 298.062296,917.663697 298.062296,917.683742 C298.062296,917.703786 298.083061,917.723831 298.083061,917.743875 C298.103826,917.76392 298.103826,917.783964 298.124592,917.783964 C298.145357,917.804009 298.145357,917.804009 298.166122,917.824053 C298.186887,917.844098 298.207653,917.864143 298.228418,917.884187 C298.228418,917.884187 298.249183,917.904232 298.249183,917.904232 C298.249183,917.904232 298.249183,917.904232 298.249183,917.904232 C298.249183,917.904232 298.269948,917.904232 298.269948,917.924276 C298.290714,917.944321 298.311479,917.944321 298.353009,917.964365 C298.373775,917.964365 298.373775,917.964365 298.39454,917.98441 C298.415305,917.98441 298.43607,918.004454 298.477601,918.004454 C298.498366,918.004454 298.498366,918.004454 298.519131,918.004454 C298.560662,918.004454 298.602192,918.024499 298.622958,918.024499 C298.622958,918.024499 298.622958,918.024499 298.622958,918.024499 C298.622958,918.024499 298.622958,918.024499 298.622958,918.024499 L302.111521,918.024499 L301.737746,924.398664 C301.737746,924.398664 301.737746,924.398664 301.737746,924.418708 C301.737746,924.438753 301.737746,924.458797 301.737746,924.478842 C301.737746,924.498886 301.737746,924.518931 301.737746,924.538976 C301.737746,924.55902 301.737746,924.579065 301.758511,924.579065 C301.758511,924.599109 301.779276,924.619154 301.779276,924.639198 C301.779276,924.659243 301.800042,924.659243 301.800042,924.679287 C301.820807,924.699332 301.820807,924.719376 301.841572,924.739421 C301.841572,924.759465 301.862337,924.759465 301.862337,924.77951 C301.883103,924.799555 301.883103,924.819599 301.903868,924.839644 C301.903868,924.839644 301.924633,924.859688 301.924633,924.859688 C301.945398,924.879733 301.966164,924.899777 301.986929,924.919822 C301.986929,924.919822 301.986929,924.919822 301.986929,924.919822 C302.007694,924.919822 302.007694,924.939866 302.02846,924.939866 C302.049225,924.939866 302.06999,924.959911 302.090755,924.959911 C302.111521,924.979955 302.153051,924.979955 302.173816,924.979955 C302.194582,924.979955 302.194582,924.979955 302.215347,924.979955 C302.236112,924.979955 302.256877,924.979955 302.277643,925 C302.277643,925 302.298408,925 302.298408,925 C302.319173,925 302.319173,925 302.339938,925 C302.381469,925 302.443765,925 302.485295,924.979955 C302.485295,924.979955 302.50606,924.979955 302.50606,924.979955 C302.547591,924.979955 302.568356,924.959911 302.609887,924.939866 C302.630652,924.939866 302.630652,924.919822 302.651417,924.919822 C302.692948,924.899777 302.713713,924.879733 302.734478,924.859688 C302.734478,924.859688 302.755243,924.839644 302.755243,924.839644 C302.796774,924.799555 302.817539,924.77951 302.85907,924.739421 C302.85907,924.739421 302.85907,924.739421 302.85907,924.739421 L309.877726,914.937639 C310.085379,914.657016 310.023083,914.296214 309.732369,914.095768 Z M303.425743,917.344992 C303.425743,917.344992 303.425743,917.325914 303.425743,917.344992 C303.425743,917.306836 303.425743,917.306836 303.425743,917.287758 C303.425743,917.26868 303.425743,917.249603 303.425743,917.230525 C303.425743,917.211447 303.425743,917.192369 303.405941,917.173291 C303.405941,917.154213 303.386139,917.135135 303.386139,917.116057 C303.386139,917.096979 303.366337,917.077901 303.366337,917.058824 C303.366337,917.039746 303.346535,917.020668 303.346535,917.00159 C303.326733,916.982512 303.326733,916.963434 303.306931,916.963434 C303.287129,916.944356 303.287129,916.925278 303.267327,916.925278 C303.247525,916.9062 303.247525,916.9062 303.227723,916.887122 C303.207921,916.868045 303.207921,916.868045 303.188119,916.848967 C303.168317,916.829889 303.148515,916.829889 303.148515,916.810811 C303.128713,916.810811 303.108911,916.791733 303.089109,916.791733 C303.069307,916.791733 303.049505,916.772655 303.029703,916.772655 C303.009901,916.772655 302.990099,916.753577 302.970297,916.753577 C302.950495,916.753577 302.930693,916.753577 302.910891,916.753577 C302.891089,916.753577 302.891089,916.753577 302.871287,916.753577 C302.871287,916.753577 302.851485,916.753577 302.851485,916.753577 C302.851485,916.753577 302.831683,916.753577 302.831683,916.753577 L300,916.753577 L304.851485,910 L304.574257,914.63593 C304.574257,914.63593 304.574257,914.655008 304.574257,914.655008 C304.574257,914.655008 304.574257,914.674086 304.574257,914.674086 C304.574257,914.693164 304.574257,914.693164 304.574257,914.712242 C304.574257,914.73132 304.574257,914.750397 304.574257,914.769475 C304.574257,914.788553 304.574257,914.807631 304.594059,914.826709 C304.594059,914.845787 304.613861,914.864865 304.613861,914.883943 C304.613861,914.903021 304.633663,914.922099 304.633663,914.941176 C304.633663,914.960254 304.653465,914.979332 304.653465,914.99841 C304.673267,915.017488 304.673267,915.036566 304.693069,915.036566 C304.712871,915.055644 304.712871,915.055644 304.732673,915.074722 C304.752475,915.0938 304.752475,915.0938 304.772277,915.112878 C304.792079,915.131955 304.792079,915.131955 304.811881,915.151033 C304.831683,915.170111 304.851485,915.170111 304.851485,915.189189 C304.871287,915.189189 304.891089,915.208267 304.910891,915.208267 C304.930693,915.208267 304.950495,915.227345 304.970297,915.227345 C304.990099,915.227345 305.009901,915.246423 305.029703,915.246423 C305.049505,915.246423 305.069307,915.246423 305.089109,915.246423 C305.108911,915.246423 305.108911,915.246423 305.128713,915.246423 C305.148515,915.246423 305.148515,915.246423 305.168317,915.246423 C305.168317,915.246423 305.168317,915.246423 305.168317,915.246423 L308,915.246423 L303.148515,922 L303.425743,917.344992 C303.425743,917.344992 303.425743,917.344992 303.425743,917.344992 Z" id="Shape" transform="translate(304.000000, 916.000000) rotate(16.000000) translate(-304.000000, -916.000000) "></path>
        </g>
    </g>
</svg>