<svg id="Layer_1" data-name="Layer 1" xmlns="http://www.w3.org/2000/svg" viewBox="0 0 100 100"><title>Artboard 1</title><path id="Path_84" data-name="Path 84" d="M61.77,23.29a3.61,3.61,0,0,0-5.1,0,4.22,4.22,0,0,0-.6.79L52.8,30a3.63,3.63,0,0,0,.6,4.31l2,2L39.17,40.62a4.87,4.87,0,0,0-3.43,3.43L28.05,72.63a4.71,4.71,0,0,0,0,2.63c-4-.08-6.76-1.14-8.32-3.25-3.8-5.14-.38-16.19,2.63-25.94S28,28,24.77,23.73c-1.3-1.71-3.43-2.55-6.35-2.47a1.21,1.21,0,0,0,.06,2.41c2.13-.06,3.55.43,4.37,1.51,2.46,3.2-.21,11.84-2.78,20.17-3.34,10.8-6.79,22-2.28,28.07,2.08,2.82,5.7,4.25,10.73,4.25a1.23,1.23,0,0,0,.8-.31,4.83,4.83,0,0,0,3.37,1.38A4.59,4.59,0,0,0,34,78.57l28.59-7.68A4.89,4.89,0,0,0,66,67.46l4.36-16.22,2,2a3.6,3.6,0,0,0,4.3.6l5.87-3.27a3.61,3.61,0,0,0,1.4-4.91,3.51,3.51,0,0,0-.6-.79Zm1.92,43.55A2.44,2.44,0,0,1,62,68.57L33.38,76.26a2.39,2.39,0,0,1-1.3,0L44.6,63.74A7.12,7.12,0,1,0,42.9,62L30.38,74.56a2.39,2.39,0,0,1,0-1.3l7.69-28.59a2.47,2.47,0,0,1,1.73-1.73l17.56-4.72L68.43,49.29ZM45.37,54.6a4.71,4.71,0,1,1,0,6.66A4.76,4.76,0,0,1,44,57.94,4.69,4.69,0,0,1,45.37,54.6Zm36.61-7a1.19,1.19,0,0,1-.61.88l-5.88,3.27a1.2,1.2,0,0,1-1.43-.2l-19-19a1.19,1.19,0,0,1-.18-1.42l3.28-5.87a1.15,1.15,0,0,1,.88-.61h.17a1.19,1.19,0,0,1,.85.35L81.65,46.57A1.19,1.19,0,0,1,82,47.59Z" style="fill:#2b2c2d;stroke:#2b2c2d"/></svg>