<svg width="19" height="10" viewBox="0 0 19 10" version="1.1" xmlns="http://www.w3.org/2000/svg" xmlns:xlink="http://www.w3.org/1999/xlink">
<title>500px</title>
<desc>Created using Figma</desc>
<g id="Canvas" transform="translate(-5602 -36504)">
<g id="500px">
<g id="Symbol">
<g id="Shape">
<use xlink:href="#path0_fill" transform="translate(5602.34 36504.9)" fill="#FFFFFF"/>
</g>
</g>
</g>
</g>
<defs>
<path id="path0_fill" fill-rule="evenodd" d="M 17.8652 4.64062C 17.5435 3.05469 16.2607 2.19531 14.689 2.37891C 14.3691 2.41797 14.0728 2.50781 13.7944 2.64062C 13.5171 2.76953 13.2583 2.9375 13.0132 3.13281C 12.8267 3.28125 12.6553 3.44531 12.4927 3.61719C 12.2935 3.82812 12.1074 4.05078 11.9214 4.26953C 11.8848 4.3125 11.8623 4.32422 11.8384 4.3125L 11.8081 4.28906L 11.7852 4.26172C 11.4414 3.85938 11.0918 3.45312 10.6714 3.12109C 10.0005 2.59375 9.25781 2.29297 8.39014 2.35938C 7.24951 2.44531 6.44141 3.01172 5.99414 4.07812C 5.98291 4.09766 5.98877 4.13672 5.9502 4.14453C 5.88037 4 5.80225 3.86328 5.71582 3.73438C 5.35791 3.20703 4.85498 2.85938 4.18213 2.73828C 3.36865 2.59375 2.61523 2.71094 1.98779 3.35156L 1.99316 3.24219L 2.11133 2.57812L 2.29346 1.51172C 2.30957 1.41797 2.34229 1.40234 2.42432 1.40234L 5.6665 1.40625C 5.70605 1.40625 5.73145 1.40234 5.74707 1.39062C 5.76416 1.375 5.77002 1.34766 5.77002 1.30469C 5.76465 0.90625 5.76465 0.503906 5.77002 0.105469C 5.77002 0.03125 5.75928 0 5.67725 0L 1.18555 0C 1.15479 0 1.13232 0.00390625 1.11572 0.0117188C 1.09375 0.0234375 1.08252 0.046875 1.07617 0.0859375L 0.284668 4.53516C 0.273926 4.60547 0.279297 4.63281 0.361328 4.63281L 1.72021 4.63281C 1.7749 4.63281 1.81299 4.61719 1.8457 4.57422C 2.18408 4.09766 2.65918 3.91797 3.22656 3.96875C 3.63623 4 3.97998 4.17188 4.20898 4.50781C 4.4126 4.80469 4.51807 5.10938 4.53369 5.41797C 4.54932 5.72266 4.47803 6.03125 4.3291 6.34375C 4.00195 7.03516 3.23193 7.33203 2.51709 7.04688C 2.03125 6.85547 1.78564 6.47266 1.70947 5.96484C 1.69824 5.89844 1.67676 5.89062 1.6167 5.89062L 0.0883789 5.89062C 0.0117188 5.89062 -0.00439453 5.91797 0.000976562 5.98828C 0.0449219 6.69141 0.29248 7.25781 0.73584 7.6875C 0.950684 7.89453 1.21191 8.07031 1.51855 8.21484C 2.09131 8.48047 2.70264 8.55859 3.3252 8.53125C 4.04004 8.5 4.66748 8.24609 5.20801 7.77344C 5.39258 7.61328 5.55029 7.43359 5.68701 7.23438C 5.73633 7.16406 5.78271 7.08984 5.82617 7.01172C 5.88037 6.91406 5.93066 6.81641 5.97754 6.71484C 6.08691 6.97656 6.20703 7.20312 6.37061 7.40625C 6.77734 7.90234 7.25 8.21484 7.77881 8.36719C 8.23584 8.5 8.73486 8.51172 9.26904 8.41797C 9.88037 8.3125 10.3877 7.99609 10.8516 7.59766C 11.0845 7.39453 11.2954 7.17578 11.5054 6.95703L 11.7632 6.6875C 11.7974 6.65234 11.8213 6.63281 11.8457 6.63281C 11.8677 6.63281 11.8901 6.65234 11.9214 6.6875C 12.2324 7.03906 12.5547 7.38672 12.9312 7.67969C 13.5479 8.15625 14.2251 8.48047 15.022 8.47656C 15.5356 8.47656 15.9922 8.37891 16.3857 8.18359C 16.9165 7.91797 17.334 7.47266 17.6255 6.83984C 17.958 6.14062 18.0181 5.39844 17.8652 4.64062ZM 10.8242 5.5C 10.4038 5.96875 9.95117 6.39453 9.36133 6.64844C 8.96289 6.81641 8.55908 6.875 8.14453 6.72266C 7.64746 6.54297 7.41309 6.15625 7.3418 5.64844C 7.33105 5.58203 7.33105 5.51953 7.33105 5.47266C 7.33105 5.22266 7.375 4.99609 7.46533 4.79297C 7.53369 4.63672 7.62891 4.49219 7.75146 4.35938C 8.11719 3.97656 8.56982 3.94141 9.05029 4.08594C 9.45996 4.21875 9.80371 4.46875 10.1255 4.74219C 10.3501 4.9375 10.5601 5.14844 10.7646 5.35547L 10.8081 5.40234C 10.8408 5.44141 10.8623 5.45703 10.8242 5.5ZM 16.2881 5.97656C 16.3467 5.80469 16.373 5.61328 16.3755 5.40234C 16.3809 5.34375 16.3701 5.25 16.3535 5.16797C 16.25 4.41406 15.606 3.93359 14.8584 4.03125C 14.5142 4.07422 14.2197 4.23438 13.9414 4.42969C 13.543 4.71484 13.2153 5.07422 12.8823 5.42969C 12.8442 5.47266 12.877 5.48828 12.8989 5.51562C 13.106 5.75 13.3242 5.97656 13.5645 6.17188C 13.9277 6.46484 14.3203 6.70312 14.7852 6.78125L 14.9673 6.80469C 15.355 6.82812 15.7153 6.75391 15.9937 6.46094C 16.1328 6.31641 16.2275 6.15625 16.2881 5.97656Z"/>
</defs>
</svg>
