<?xml version="1.0" encoding="UTF-8"?>
<svg width="18px" height="11px" viewBox="0 0 18 11" version="1.1" xmlns="http://www.w3.org/2000/svg" xmlns:xlink="http://www.w3.org/1999/xlink">
    <!-- Generator: Sketch 46.2 (44496) - http://www.bohemiancoding.com/sketch -->
    <title>if_bandcamp-3_2064221</title>
    <desc>Created with Sketch.</desc>
    <defs></defs>
    <g id="Screens" stroke="none" stroke-width="1" fill="none" fill-rule="evenodd">
        <g id="User-Settings---Connect-Acounts" transform="translate(-600.000000, -1142.000000)" fill-rule="nonzero" fill="#FFFFFF">
            <g id="if_bandcamp-3_2064221" transform="translate(599.736923, 1141.485489)">
                <g id="Symbol" transform="translate(0.508709, 0.651815)">
                    <g id="Group">
                        <path d="M5.62076632,0.00451467174 L0.0225733587,10.0270859 L11.8058666,10.0270859 L17.4040596,0.00451467174 L5.62076632,0.00451467174 Z M7.55304582,9.14672494 C7.2054161,9.792323 6.6139941,10.0406299 5.89616129,10.0225713 C5.53498755,10.0135419 5.17832849,9.95936586 4.85778679,9.75620563 C4.69525861,9.65236818 4.5688478,9.51241336 4.43340765,9.35891452 C4.43340765,9.46275197 4.43340765,10.0225713 4.43340765,10.0225713 L3.50338527,10.0225713 L3.50789994,3.86907368 L4.46952502,3.86907368 C4.46952502,4.60496517 4.46501035,5.34085667 4.46501035,6.07674816 C4.48306904,6.06771882 4.50112772,6.06320415 4.51918641,6.0541748 C5.24153389,5.06094702 6.99322652,5.23701922 7.57561918,6.35665781 C8.05417438,7.28668019 8.04965971,8.23024658 7.55304582,9.14672494 Z M12.4785527,8.55530295 C12.2437898,9.43114926 11.6704264,9.91873381 10.7674921,10.0090272 C10.3792303,10.0496593 9.9999979,10.0135419 9.62979482,9.87358709 C9.06546085,9.65688285 8.68622843,9.25507707 8.48758287,8.68622843 C8.27087863,8.05868906 8.27990797,7.42663501 8.48758287,6.80361031 C8.77652186,5.93227867 9.49886934,5.4311501 10.4559797,5.41309142 C10.9119616,5.40406207 11.3498848,5.47629682 11.7471759,5.71105975 C12.1264083,5.93227867 12.3702006,6.2618497 12.487582,6.68622885 C12.4966114,6.72686089 12.5282141,6.94356514 12.5282141,7.01128521 C12.5282141,7.01128521 12.5282141,7.01128521 12.5282141,7.01128521 L11.6704264,7.01128521 C11.6207651,6.88035973 11.553045,6.75394892 11.4627515,6.63656746 C10.9435643,5.94582268 9.85552841,6.01805743 9.44469328,6.77200761 C9.2821651,7.06997594 9.23250371,7.39051764 9.23250371,7.83295547 C9.23250371,8.08126241 9.29119444,8.43340681 9.48984,8.7539485 C9.7291176,9.1376956 10.0857767,9.33182649 10.5598172,9.32279714 C11.0474017,9.3137678 11.3950315,9.08803421 11.6027064,8.67268441 C11.6704264,8.53724426 11.7200878,8.39728944 11.7516905,8.25733461 L12.5327287,8.25733461 C12.5282141,8.31151067 12.4920967,8.51015623 12.4785527,8.55530295 Z" id="Shape"></path>
                        <path d="M6.79909564,6.62753811 C6.31602576,5.93679334 5.29119528,6.00902809 4.90744818,6.76297827 C4.75394934,7.0609466 4.70880262,7.38148829 4.70880262,7.82392612 C4.70880262,8.07223307 4.76297869,8.42437747 4.94808023,8.74491916 C5.16929914,9.12866626 5.50789952,9.32279714 5.95033735,9.3137678 C6.4063192,9.30473846 6.73589024,9.07900487 6.92550645,8.66365507 C7.11963733,8.24830527 7.14672536,7.81038211 7.08351996,7.36794428 C7.04288791,7.09706397 6.95259448,6.84875703 6.79909564,6.62753811 Z" id="Shape"></path>
                    </g>
                </g>
            </g>
        </g>
    </g>
</svg>