<svg width="13" height="10" viewBox="0 0 13 10" version="1.1" xmlns="http://www.w3.org/2000/svg" xmlns:xlink="http://www.w3.org/1999/xlink">
<title>codepen</title>
<desc>Created using Figma</desc>
<g id="Canvas" transform="translate(-5604 -36560)">
<g id="codepen">
<g id="Symbol">
<g id="Codepen_1_">
<use xlink:href="#path0_fill" transform="translate(5604.85 36558.5)" fill="#FFFFFF"/>
</g>
</g>
</g>
</g>
<defs>
<path id="path0_fill" fill-rule="evenodd" d="M 0.00878906 4.33984L 0 4.44141L 0 8.33203L 0.00439453 8.40234M 0.00878906 4.33984C 0.00878906 4.35156 0.00439453 4.35938 0.00439453 4.36719ZM 5.82275 4.13672L 5.82275 1.57422L 1.52344 4.44141L 3.44287 5.72656L 5.82275 4.13672ZM 6.37354 7.67969L 4.43262 6.38281L 6.37354 5.08203L 8.31445 6.38281L 6.37354 7.67969ZM 10.2856 6.38672L 11.6587 7.30078L 11.6587 5.46875L 10.2856 6.38672ZM 6.92041 8.63672L 6.92041 11.1953L 11.2197 8.32422L 9.30029 7.04297L 6.92041 8.63672ZM 1.52344 8.32812L 5.82275 11.1953L 5.82275 8.64062L 3.44287 7.04688L 1.52344 8.32812ZM 1.08447 5.46484L 2.45752 6.38281L 1.08447 7.29688L 1.08447 5.46484ZM 6.92041 1.57422L 11.2197 4.44141L 9.30029 5.72656L 6.92041 4.13672L 6.92041 1.57422Z"/>
</defs>
</svg>
