<?xml version="1.0" encoding="UTF-8"?>
<svg width="11px" height="12px" viewBox="0 0 11 12" version="1.1" xmlns="http://www.w3.org/2000/svg" xmlns:xlink="http://www.w3.org/1999/xlink">
    <!-- Generator: Sketch 46.2 (44496) - http://www.bohemiancoding.com/sketch -->
    <title>if_bloglovin_2246636</title>
    <desc>Created with Sketch.</desc>
    <defs></defs>
    <g id="Screens" stroke="none" stroke-width="1" fill="none" fill-rule="evenodd">
        <g id="User-Settings---Connect-Acounts" transform="translate(-604.000000, -697.000000)" fill-rule="nonzero" fill="#FFFFFF">
            <g id="if_bloglovin_2246636" transform="translate(604.375498, 697.109990)">
                <g id="Symbol" transform="translate(0.154484, 0.231186)">
                    <path d="M1.84344247,9.44360001 C1.84344247,9.56892176 1.85152774,9.69020087 1.84344247,9.81552261 C1.81514401,10.1631894 1.68173699,10.4542593 1.35832603,10.62405 C1.04300034,10.7897981 0.557883905,10.7614997 0.291069863,10.4623445 C0.16170548,10.3168096 0.0929806508,10.1510615 0.0646821919,9.96105755 C0.0485116439,9.83977844 0.0363837329,9.71849933 0.0363837329,9.59722022 C0.0363837329,6.77950223 0.0363837329,3.96178425 0.0363837329,1.14406627 C0.0363837329,0.901508049 0.0687248288,0.662992467 0.185961302,0.444690069 C0.33553887,0.157662843 0.582139727,0.016170548 0.901508049,0.00808527398 C1.09959726,0.00404263699 1.2896012,0.0363837329 1.45939195,0.149577569 C1.66556644,0.287027226 1.770675,0.493201713 1.81918665,0.727674658 C1.84344247,0.848953768 1.85557038,0.974275515 1.85557038,1.09555462 C1.85961302,2.06174487 1.85557038,3.02793511 1.85557038,3.99412535 C1.85557038,4.01029589 1.85557038,4.02646644 1.85557038,4.04667963 C1.85961302,4.05072226 1.86365565,4.0547649 1.86769829,4.05880754 C1.8798262,4.04263699 1.88791147,4.02646644 1.90003939,4.01433853 C2.22749298,3.67879966 2.58728767,3.38368716 3.00772192,3.17347004 C3.26240805,3.04410565 3.53326473,2.97133819 3.81624932,2.93091182 C4.09519127,2.89048545 4.37413322,2.88240017 4.65307518,2.906656 C5.65969179,2.99155137 6.44396336,3.44432672 6.97354881,4.31349367 C7.22823494,4.72988528 7.38185515,5.18266062 7.47079316,5.65969179 C7.54356063,6.05182758 7.57185908,6.44396336 7.56377381,6.84014179 C7.5516459,7.51526217 7.4424947,8.174212 7.17163802,8.80082073 C6.96546354,9.26976662 6.68652158,9.69020087 6.29438579,10.0257397 C5.88607946,10.3734065 5.41713357,10.5957516 4.88754812,10.6846896 C4.29732312,10.7817129 3.72326867,10.7332012 3.16538476,10.5108562 C2.85005908,10.3855344 2.5792024,10.1955305 2.34068682,9.96105755 C2.18706661,9.81147998 2.04961695,9.6497745 1.90408202,9.49211165 C1.89195411,9.47594111 1.8798262,9.4638132 1.86365565,9.44764265 C1.85557038,9.44360001 1.85152774,9.44360001 1.84344247,9.44360001 Z M5.63139333,6.68652158 C5.62330805,6.5894983 5.61118014,6.39949436 5.59096696,6.20949042 C5.55458323,5.88607946 5.46968785,5.57479641 5.32415292,5.28372655 C5.17457535,4.98457141 4.9724435,4.72988528 4.68541627,4.55200925 C4.35392004,4.34583477 3.99412535,4.28923785 3.61007483,4.33774949 C3.20985377,4.39030377 2.8743149,4.5681798 2.59941559,4.85924966 C2.38515582,5.08563733 2.23962089,5.34840874 2.13451233,5.6394786 C2.01727586,5.95884692 1.96472158,6.28630052 1.95259367,6.62588203 C1.93238048,7.06652946 1.96067894,7.50717689 2.10217124,7.93165378 C2.24366353,8.3601733 2.48622175,8.71592535 2.87027226,8.96252621 C3.12495839,9.12827433 3.40390035,9.20508443 3.70305548,9.22934025 C3.99816798,9.24955344 4.28115257,9.20912707 4.54392398,9.06763477 C5.01286987,8.81294864 5.30798237,8.41677022 5.47373049,7.91548323 C5.59096696,7.54760326 5.62330805,7.16759538 5.63139333,6.68652158 Z" id="Shape"></path>
                    <path d="M8.33187484,2.28004726 C8.19442518,2.25579144 8.06101816,2.24366353 7.93569641,2.20323716 C7.65271182,2.11429915 7.41419624,1.95259367 7.29291713,1.67365171 C6.98163408,0.970232878 7.36972723,0.303197774 8.04889025,0.149577569 C8.39655703,0.0687248288 8.71592535,0.137449658 8.99890994,0.363837329 C9.20912707,0.529585446 9.33444881,0.755973117 9.41125891,1.01065925 C9.50423957,1.30981439 9.52041011,1.61301216 9.50019693,1.92429521 C9.47998374,2.25579144 9.41125891,2.5792024 9.27785189,2.88644281 C9.09593323,3.3109197 8.85741765,3.69092757 8.50166559,3.99412535 C8.31974693,4.15178819 8.12570035,4.28519521 7.89122741,4.34583477 C7.74164984,4.3822185 7.59207227,4.38626114 7.45462261,4.3054084 C7.15546747,4.131575 7.12716901,3.71518339 7.40206833,3.49283836 C7.45866525,3.44836935 7.5193048,3.41198562 7.57994436,3.37560189 C7.81037467,3.23410959 8.01654915,3.07240411 8.16208408,2.8419738 C8.25910737,2.68431096 8.31570429,2.51452021 8.3278322,2.33260154 C8.33187484,2.30834572 8.33187484,2.28813254 8.33187484,2.28004726 Z" id="Shape"></path>
                </g>
            </g>
        </g>
    </g>
</svg>