<svg width="14" height="10" viewBox="0 0 14 10" version="1.1" xmlns="http://www.w3.org/2000/svg" xmlns:xlink="http://www.w3.org/1999/xlink">
<title>discord</title>
<desc>Created using Figma</desc>
<g id="Canvas" transform="translate(-5604 -36728)">
<g id="discord">
<g id="Symbol">
<g id="Shape">
<use xlink:href="#path0_fill" transform="translate(5604.67 36728.5)" fill="#FFFFFF"/>
</g>
</g>
</g>
</g>
<defs>
<path id="path0_fill" fill-rule="evenodd" d="M 9.02344 8.58594C 9.83545 8.33203 10.5215 7.9375 11.061 7.24609C 8.10742 8.94922 5.19141 8.89844 2.28027 7.27734C 2.35059 7.46094 2.6792 7.80078 3.11133 8.05859C 3.34229 8.19531 3.58643 8.3125 3.83301 8.42969L 4.16309 8.59375L 4.03174 8.76562L 3.89648 8.92969L 3.76025 9.09375L 3.66553 9.22656C 3.59912 9.33203 3.52539 9.40234 3.43701 9.44141C 3.34375 9.48047 3.23486 9.49219 3.10205 9.47656C 2.04053 9.35547 1.10596 8.98438 0.34082 8.21875C 0.0634766 7.94531 -0.0161133 7.65625 0.00244141 7.26172C 0.0966797 5.45703 0.523926 3.73438 1.20459 2.07031C 1.29883 1.83984 1.4209 1.62109 1.51465 1.39062C 1.54492 1.31641 1.58447 1.25391 1.63232 1.19531C 1.68994 1.12891 1.75928 1.07422 1.83887 1.02344C 2.08838 0.859375 2.34424 0.710938 2.60742 0.578125C 3.09766 0.335938 3.61523 0.15625 4.16797 0.0625C 4.34131 0.03125 4.51514 0.0078125 4.69385 0C 4.75928 -0.00390625 4.83008 0.046875 4.89111 0.0976562C 4.53076 0.222656 4.17676 0.347656 3.83203 0.492188C 3.66895 0.558594 3.5083 0.632812 3.3501 0.710938C 3.18799 0.789062 3.02832 0.875 2.87158 0.964844L 2.58691 1.14062L 2.34863 1.30078L 2.13428 1.44141L 2.03711 1.52344L 1.97461 1.57422C 4.98486 0.136719 7.98096 0.0664062 10.9814 1.53516C 10.1782 0.886719 9.25342 0.484375 8.28125 0.167969C 8.35156 0.0234375 8.4502 -0.0078125 8.60547 0.00390625C 8.91016 0.0351562 9.20557 0.0859375 9.49219 0.160156C 10.1943 0.34375 10.8438 0.664062 11.4512 1.08984C 11.5308 1.14453 11.606 1.22656 11.6528 1.31641C 12.3198 2.66406 12.7656 4.07812 13.0195 5.55469C 13.0767 5.89062 13.1201 6.22656 13.1519 6.56641C 13.1729 6.79297 13.188 7.01953 13.1982 7.24609L 13.2119 7.64453C 13.2119 7.73438 13.1792 7.84375 13.1226 7.91406C 12.9043 8.19531 12.6587 8.4375 12.3882 8.64062C 12.2095 8.77344 12.02 8.89062 11.8203 8.99219C 11.542 9.13281 11.2446 9.24609 10.9297 9.32812C 10.6685 9.39453 10.396 9.42969 10.1255 9.46484L 9.88721 9.49219L 9.82568 9.49219L 9.75732 9.47266L 9.71826 9.44531L 9.02344 8.58594ZM 4.49658 6.72266C 4.75 6.72266 4.97559 6.64453 5.17285 6.48438C 5.50146 6.21875 5.60938 5.85547 5.66113 5.44141C 5.76416 4.57422 4.78271 3.94141 4.02197 4.29688C 3.85156 4.37891 3.70703 4.5 3.59424 4.64844C 3.35303 4.96094 3.25879 5.39844 3.37402 5.8125C 3.52441 6.36328 3.9707 6.72266 4.49658 6.72266ZM 9.01855 6.64453C 8.89648 6.69531 8.75537 6.71094 8.62402 6.74219C 8.05127 6.72656 7.54395 6.25 7.46875 5.66016C 7.42188 5.22656 7.51611 4.84375 7.82568 4.52734C 8.30469 4.03906 9.08447 4.08984 9.50244 4.63281C 10.0283 5.31641 9.78418 6.33984 9.01855 6.64453Z"/>
</defs>
</svg>
