<svg width="16" height="16" viewBox="0 0 16 16" version="1.1" xmlns="http://www.w3.org/2000/svg" xmlns:xlink="http://www.w3.org/1999/xlink">
<title>dribbble</title>
<desc>Created using Figma</desc>
<g id="Canvas" transform="translate(-5172 -36223)">
<g id="dribbble">
<use xlink:href="#path0_fill" transform="translate(5172.21 36223.3)" fill="#FFFFFF"/>
</g>
</g>
<defs>
<path id="path0_fill" fill-rule="evenodd" d="M 15.0185 6.06021C 14.9184 5.57163 14.7697 5.09215 14.5755 4.63392C 14.3843 4.18479 14.1506 3.75083 13.8744 3.34419C 13.6044 2.94362 13.2918 2.56428 12.9489 2.22137C 12.606 1.87845 12.2266 1.56588 11.8261 1.2958C 11.4194 1.02268 10.9855 0.785976 10.5363 0.594793C 10.0781 0.400575 9.59862 0.251876 9.11004 0.151733C 8.61539 0.0515892 8.0995 0 7.58664 0C 7.07378 0 6.55789 0.0515892 6.05717 0.154767C 5.56859 0.254911 5.08912 0.403609 4.63089 0.597827C 4.18176 0.789011 3.7478 1.02268 3.34116 1.29883C 2.94058 1.56892 2.56125 1.88149 2.21833 2.2244C 1.87542 2.56732 1.56285 2.94362 1.29276 3.34723C 1.01964 3.75387 0.782941 4.18479 0.591758 4.63695C 0.39754 5.09519 0.248842 5.57466 0.148698 6.06324C 0.0515891 6.55789 0 7.07378 0 7.58664C 0 8.10253 0.0515892 8.61539 0.154767 9.11611C 0.254911 9.60469 0.403609 10.0842 0.597827 10.5424C 0.789011 10.9915 1.02268 11.4255 1.29883 11.8321C 1.56892 12.2327 1.88149 12.612 2.2244 12.9549C 2.56732 13.2979 2.94665 13.6104 3.34723 13.8805C 3.75387 14.1536 4.18783 14.3903 4.63695 14.5815C 5.09519 14.7757 5.57466 14.9244 6.06324 15.0246C 6.56396 15.1278 7.07682 15.1793 7.59271 15.1793C 8.10557 15.1793 8.62146 15.1278 9.11914 15.0246C 9.60772 14.9244 10.0872 14.7757 10.5454 14.5815C 10.9946 14.3903 11.4285 14.1567 11.8352 13.8805C 12.2357 13.6104 12.6151 13.2979 12.958 12.9549C 13.3009 12.612 13.6135 12.2357 13.8836 11.8321C 14.1567 11.4255 14.3934 10.9915 14.5846 10.5424C 14.7788 10.0842 14.9275 9.60469 15.0276 9.11611C 15.1308 8.61539 15.1824 8.10253 15.1824 7.58664C 15.1733 7.07378 15.1217 6.55789 15.0185 6.06021ZM 14.0625 7.52392C 13.9685 7.50268 11.7774 7.03231 9.55001 7.3115C 9.50449 7.19921 9.45897 7.08997 9.41041 6.97768C 9.27689 6.66208 9.13122 6.34648 8.97949 6.03694C 11.5377 4.99302 12.5756 3.49086 12.5907 3.47266C 13.4981 4.57424 14.0474 5.98535 14.0625 7.52392ZM 11.8654 2.72685C 11.8502 2.75112 10.9276 4.15617 8.48171 5.07264C 7.37406 3.03638 6.15717 1.41891 6.06006 1.29145C 6.54864 1.1731 7.0615 1.10938 7.58649 1.10938C 9.22824 1.10938 10.7243 1.71934 11.8654 2.72685ZM 6.19296 1.29688C 6.19296 1.29688 6.16749 1.29688 6.19296 1.29688C 6.19296 1.29688 6.11654 1.32235 6.01465 1.34782C 6.0656 1.32235 6.11654 1.32235 6.19296 1.29688ZM 4.8219 1.72656C 4.90687 1.84188 6.10555 3.46542 7.22838 5.45919C 4.11786 6.28765 1.41701 6.25427 1.24707 6.25123C 1.66585 4.24533 3.01627 2.5793 4.8219 1.72656ZM 1.10742 7.58679C 1.10742 7.517 1.11046 7.45024 1.11349 7.38347C 1.22881 7.38651 4.43037 7.45934 7.76546 6.46094C 7.95057 6.8251 8.12962 7.19229 8.29045 7.56252C 8.20548 7.58679 8.12051 7.61107 8.03554 7.63838C 4.53962 8.76728 2.76434 11.9142 2.76434 11.9142L 2.76738 11.9172C 1.7356 10.7671 1.10742 9.24979 1.10742 7.58679ZM 7.5866 14.064C 6.01769 14.064 4.57926 13.5056 3.45947 12.58C 3.54444 12.6498 3.60514 12.6923 3.60514 12.6923C 3.60514 12.6923 4.84631 9.98236 8.69122 8.64408C 8.70639 8.63801 8.71853 8.63498 8.7337 8.62891C 9.6441 10.999 10.0204 12.9806 10.1175 13.5481C 9.3376 13.8819 8.48486 14.064 7.5866 14.064ZM 11.2068 12.9622C 11.14 12.5708 10.7971 10.668 9.94434 8.33437C 12.0352 8.00056 13.8469 8.57411 13.9835 8.6166C 13.6952 10.4222 12.6604 11.979 11.2068 12.9622Z"/>
</defs>
</svg>
