<svg width="9" height="16" viewBox="0 0 9 16" version="1.1" xmlns="http://www.w3.org/2000/svg" xmlns:xlink="http://www.w3.org/1999/xlink">
<title>facebook</title>
<desc>Created using Figma</desc>
<g id="Canvas" transform="translate(-5174 -36112)">
<g id="facebook">
<use xlink:href="#path0_fill" transform="translate(5174.99 36112.9)" fill="#FFFFFF"/>
</g>
</g>
<defs>
<path id="path0_fill" d="M 7.86432 0.101035L 7.79002 2.64612C 7.79002 2.64612 7.46489 2.63288 6.32355 2.64612C 5.20221 2.65942 5.18891 3.49547 5.18891 3.5353L 5.17562 5.65201L 7.79002 5.69843L 7.41177 8.40573L 5.18891 8.40573L 5.1292 14.1122L 2.43519 14.1122L 2.36223 8.41897L 0 8.40573L 0.0663651 5.65201L 2.38877 5.65201C 2.38877 5.65201 2.38877 3.66181 2.38877 3.66138C 2.38877 2.88258 2.57494 2.03747 3.01875 1.38786C 3.41024 0.814862 4.00217 0.436774 4.66223 0.243254C 4.66223 0.243254 6.04651 -0.191121 7.86432 0.101035Z"/>
</defs>
</svg>
