<svg width="16" height="16" viewBox="0 0 16 16" version="1.1" xmlns="http://www.w3.org/2000/svg" xmlns:xlink="http://www.w3.org/1999/xlink">
<title>github</title>
<desc>Created using Figma</desc>
<g id="Canvas" transform="translate(-5172 -36334)">
<g id="github">
<use xlink:href="#path0_fill" transform="translate(5172.21 36334.7)" fill="#FFFFFF"/>
</g>
</g>
<defs>
<path id="path0_fill" fill-rule="evenodd" d="M 7.62188 0C 3.42985 0 0 3.42985 0 7.62188C 0 11.8139 3.42985 15.2438 7.62188 15.2438C 11.8139 15.2438 15.2438 11.8139 15.2438 7.62188C 15.2438 3.42985 11.8139 0 7.62188 0ZM 9.52726 14.1462C 9.52726 14.0986 9.52726 14.051 9.52726 14.0033C 9.52726 13.7651 9.52726 12.9077 9.52726 11.9073C 9.52726 11.1927 9.28907 10.7164 9.00325 10.4782C 10.7182 10.2876 12.4807 9.62073 12.4807 6.71489C 12.4807 5.90506 12.1949 5.19051 11.7185 4.66651C 11.8138 4.47596 12.052 3.71377 11.6233 2.66576C 11.6233 2.66576 11.004 2.47522 9.52726 3.42795C 8.90798 3.23741 8.2887 3.18977 7.62179 3.18977C 6.95487 3.18977 6.33559 3.28504 5.71631 3.42795C 4.23957 2.47522 3.6203 2.66576 3.6203 2.66576C 3.19157 3.71377 3.47739 4.5236 3.52502 4.71415C 3.04865 5.23815 2.76283 5.90506 2.76283 6.76253C 2.76283 9.66837 4.5254 10.3353 6.24032 10.5258C 6.00214 10.7164 5.81159 11.0498 5.76395 11.5262C 5.33522 11.7168 4.23957 12.0502 3.52502 10.9069C 3.52502 10.9069 3.14393 10.1924 2.3341 10.1447C 2.3341 10.1447 1.57191 10.1447 2.28647 10.6211C 2.28647 10.6211 2.76283 10.8593 3.14393 11.7168C 3.14393 11.7168 3.57266 13.1935 5.71631 12.7171C 5.71631 13.3364 5.71631 13.8128 5.71631 14.0033C 5.71631 14.051 5.71631 14.0986 5.71631 14.0986C 2.95338 13.2888 0.952637 10.764 0.952637 7.7629C 0.952637 4.09487 3.95375 1.09375 7.62179 1.09375C 11.2898 1.09375 14.2909 4.09487 14.2909 7.7629C 14.2909 10.764 12.2902 13.2888 9.52726 14.1462Z"/>
</defs>
</svg>
