<svg width="19" height="13" viewBox="0 0 19 13" version="1.1" xmlns="http://www.w3.org/2000/svg" xmlns:xlink="http://www.w3.org/1999/xlink">
<title>googleplus</title>
<desc>Created using Figma</desc>
<g id="Canvas" transform="translate(-5170 -36615)">
<g id="googleplus">
<use xlink:href="#path0_fill" transform="translate(5170.35 36615.8)" fill="#FFFFFF"/>
</g>
</g>
<defs>
<path id="path0_fill" fill-rule="evenodd" d="M 5.83887 7.00391L 5.83887 4.6875L 11.4521 4.6875C 11.8447 7.48438 10.667 11.6875 5.84326 11.6875C 2.61719 11.6875 0 9.07031 0 5.84375C 0 2.61719 2.61719 0 5.84326 0C 7.35498 0 8.73584 0.578125 9.77344 1.51953C 8.96729 2.28125 8.71045 2.57031 8.49072 2.81641C 8.37695 2.94531 8.27295 3.0625 8.1084 3.22656C 7.5083 2.73047 6.854 2.375 5.83887 2.375C 3.92578 2.375 2.42773 3.92578 2.42773 5.84375C 2.42773 7.76172 3.9209 9.3125 5.83887 9.3125C 7.73389 9.3125 8.50098 8.49609 8.99756 7L 5.83887 7.00391ZM 16.3701 2.77344L 16.3701 4.80078L 18.396 4.80078L 18.396 6.24219L 16.3701 6.24219L 16.3701 8.32422L 14.9263 8.32422L 14.9263 6.24219L 12.8462 6.24219L 12.8462 4.80078L 14.9263 4.80078L 14.9263 2.77344L 16.3701 2.77344Z"/>
</defs>
</svg>
