<svg width="19" height="19" viewBox="0 0 19 19" version="1.1" xmlns="http://www.w3.org/2000/svg" xmlns:xlink="http://www.w3.org/1999/xlink">
<title>instagram</title>
<desc>Created using Figma</desc>
<g id="Canvas" transform="translate(-5601 -36055)">
<g id="instagram">
<g id="Shape">
<use xlink:href="#path0_fill" transform="translate(5601.67 36055.8)" fill="#FFFFFF"/>
</g>
<g id="Shape">
<use xlink:href="#path1_fill" transform="translate(5605.89 36060)" fill="#FFFFFF"/>
</g>
<g id="Oval">
<use xlink:href="#path2_fill" transform="translate(5613.95 36058.8)" fill="#FFFFFF"/>
</g>
</g>
</g>
<defs>
<path id="path0_fill" fill-rule="evenodd" d="M 5.09766 0.0507812C 6.02637 0.0078125 6.32275 0 8.68213 0C 10.1484 0 10.8179 0.00390625 11.3398 0.0195312L 12.2754 0.0507812C 12.6396 0.0664062 12.9585 0.0976562 13.2451 0.144531C 13.6885 0.21875 14.0537 0.324219 14.3882 0.453125C 14.6631 0.5625 14.9185 0.683594 15.1641 0.839844C 15.4253 1.00391 15.6753 1.20703 15.9258 1.45703C 16.4106 1.94141 16.7065 2.41797 16.9287 2.99219C 17.1426 3.55078 17.2905 4.18359 17.3315 5.10547C 17.3726 6.03516 17.3809 6.33203 17.3809 8.69141C 17.3809 11.0508 17.3726 11.3477 17.3315 12.2734C 17.2905 13.2031 17.1426 13.8359 16.9287 14.3867C 16.7769 14.7773 16.5898 15.1289 16.332 15.4648C 16.2129 15.6211 16.0786 15.7734 15.9258 15.9258C 15.4404 16.4102 14.9639 16.707 14.3882 16.9297C 13.9741 17.0859 13.52 17.207 12.9385 17.2773C 12.7344 17.3008 12.5146 17.3203 12.2754 17.332C 11.3462 17.3711 11.0503 17.3828 8.69043 17.3828C 6.33057 17.3828 6.03467 17.3711 5.10596 17.332C 4.45312 17.3008 3.94629 17.2188 3.51123 17.1016C 3.32715 17.0508 3.15625 16.9922 2.99268 16.9297C 2.42529 16.707 1.94043 16.4102 1.45508 15.9258C 0.970215 15.4414 0.674316 14.9648 0.452148 14.3867C 0.238281 13.8281 0.090332 13.1953 0.0493164 12.2734C 0.00830078 11.3477 0 11.0508 0 8.69141C 0 6.33203 0.00830078 6.02734 0.0493164 5.10547C 0.090332 4.17578 0.238281 3.54297 0.452148 2.99219C 0.674316 2.42578 0.970215 1.94141 1.45508 1.45703C 1.94043 0.96875 2.41699 0.675781 2.99268 0.453125C 3.54346 0.238281 4.17676 0.0898438 5.09766 0.0507812ZM 12.1929 1.62109C 11.2803 1.57812 11.0005 1.57031 8.68213 1.57031C 6.35547 1.57031 6.08398 1.57812 5.17139 1.62109C 4.32422 1.66016 3.86426 1.80859 3.56006 1.92578C 3.14893 2.07812 2.86084 2.26953 2.55664 2.57422C 2.25244 2.87891 2.06348 3.16406 1.90723 3.57812C 1.78369 3.87891 1.64404 4.33984 1.60303 5.1875C 1.56201 6.10156 1.55371 6.37891 1.55371 8.69922C 1.55371 11.0156 1.56201 11.2891 1.60303 12.2109C 1.64404 13.0547 1.79199 13.5156 1.90723 13.8203C 2.03369 14.1523 2.18164 14.4062 2.39453 14.6484L 2.55664 14.8242C 2.86084 15.1289 3.14893 15.3164 3.56006 15.4727C 3.86426 15.5977 4.32422 15.7383 5.17139 15.7773C 6.08398 15.8203 6.36328 15.8281 8.68213 15.8281C 11.0005 15.8281 11.272 15.8203 12.1929 15.7773C 13.0396 15.7383 13.5 15.5898 13.8042 15.4727C 14.2153 15.3164 14.5029 15.1289 14.8071 14.8242C 15.1113 14.5195 15.3008 14.2305 15.457 13.8203C 15.5801 13.5156 15.7197 13.0547 15.7612 12.2109C 15.8022 11.2969 15.8105 11.0156 15.8105 8.69922C 15.8105 6.37891 15.8022 6.10938 15.7612 5.1875C 15.7197 4.33984 15.5718 3.87891 15.457 3.57812C 15.3008 3.16406 15.1113 2.87891 14.8071 2.57422C 14.5029 2.26953 14.2153 2.07812 13.8042 1.92578C 13.5 1.80078 13.0396 1.66016 12.1929 1.62109Z"/>
<path id="path1_fill" fill-rule="evenodd" d="M 0 4.46484C 0 1.99609 1.99805 0 4.46436 0C 6.92285 0 8.92871 1.99609 8.92871 4.46484C 8.92871 6.92969 6.93115 8.92969 4.46436 8.92969C 1.99805 8.92969 0 6.92969 0 4.46484ZM 1.56201 4.45703C 1.56201 6.05859 2.86084 7.35938 4.46436 7.35938C 6.05957 7.35938 7.3667 6.05859 7.3667 4.45703C 7.3667 3.23438 6.6084 2.1875 5.53613 1.76172C 5.20459 1.62891 4.84277 1.55469 4.46436 1.55469C 3.76611 1.55469 3.12598 1.80078 2.62549 2.21094C 1.97607 2.74609 1.56201 3.55469 1.56201 4.45703Z"/>
<path id="path2_fill" d="M 1.04417 2.08834C 1.62085 2.08834 2.08834 1.62085 2.08834 1.04417C 2.08834 0.467491 1.62085 0 1.04417 0C 0.467491 0 0 0.467491 0 1.04417C 0 1.62085 0.467491 2.08834 1.04417 2.08834Z"/>
</defs>
</svg>
