<svg width="15" height="12" viewBox="0 0 15 12" version="1.1" xmlns="http://www.w3.org/2000/svg" xmlns:xlink="http://www.w3.org/1999/xlink">
<title>medium</title>
<desc>Created using Figma</desc>
<g id="Canvas" transform="translate(-5172 -36170)">
<g id="medium">
<g id="Shape">
<use xlink:href="#path0_fill" transform="translate(5172 36170)" fill="#FFFFFF"/>
</g>
</g>
</g>
<defs>
<path id="path0_fill" d="M 1.77871 2.44797C 1.79735 2.26242 1.72713 2.07903 1.58964 1.95414L 0.189076 0.253968L 0.189076 0L 4.53782 0L 7.89916 7.42857L 10.8543 0L 15 0L 15 0.253968L 13.8025 1.41093C 13.6993 1.49023 13.6481 1.62056 13.6695 1.74956L 13.6695 10.2504C 13.6481 10.3794 13.6993 10.5098 13.8025 10.5891L 14.972 11.746L 14.972 12L 9.08964 12L 9.08964 11.746L 10.3011 10.5608C 10.4202 10.4409 10.4202 10.4056 10.4202 10.2222L 10.4202 3.35097L 7.05182 11.9718L 6.59664 11.9718L 2.67507 3.35097L 2.67507 9.12875C 2.64237 9.37166 2.72243 9.61622 2.89216 9.79189L 4.46779 11.7178L 4.46779 11.9718L 0 11.9718L 0 11.7178L 1.57563 9.79189C 1.74412 9.61593 1.81951 9.36975 1.77871 9.12875L 1.77871 2.44797Z"/>
</defs>
</svg>
