<svg width="15" height="16" viewBox="0 0 15 16" version="1.1" xmlns="http://www.w3.org/2000/svg" xmlns:xlink="http://www.w3.org/1999/xlink">
<title>patreon</title>
<desc>Created using Figma</desc>
<g id="Canvas" transform="translate(-5604 -36334)">
<g id="patreon">
<g id="Shape">
<use xlink:href="#path0_fill" transform="translate(5604.64 36335)" fill="#FFFFFF"/>
</g>
</g>
</g>
<defs>
<path id="path0_fill" d="M 1.66089 14.4059C 1.09812 14.4059 0.570846 14.4059 0.0131493 14.4059C 0.0131493 14.2944 0.0131493 14.198 0.0131493 14.0966C 0.0131493 11.7797 -0.0223404 9.46775 0.0232893 7.15077C 0.0790589 4.07837 1.57977 1.91349 4.33783 0.60544C 5.23522 0.179562 6.20358 -0.0232365 7.19223 0.00211336C 11.1265 0.0984428 13.773 2.93763 14.2446 6.08608C 14.8175 9.90883 12.4042 13.4223 8.63717 14.2284C 8.09468 14.3451 7.53191 14.3907 6.97929 14.4059C 5.96529 14.4312 4.9513 14.416 3.90689 14.416C 3.90182 14.3298 3.89168 14.2487 3.89168 14.1727C 3.89675 11.8506 3.89675 9.52859 3.90689 7.20147C 3.91196 6.08608 4.37839 5.18869 5.27578 4.53974C 7.23786 3.11 10.0922 4.34201 10.3964 6.7401C 10.5587 8.01266 10.1379 9.06722 9.11374 9.83278C 8.10482 10.5882 6.98943 10.6744 5.8284 10.1978C 5.76756 10.1725 5.70672 10.1471 5.61547 10.1116C 5.60533 10.2029 5.59012 10.2739 5.59012 10.3449C 5.59012 10.9786 5.59519 11.6123 5.58505 12.2461C 5.57998 12.4387 5.65602 12.5097 5.83347 12.5554C 8.91601 13.3716 12.1405 11.227 12.6019 8.05829C 13.0278 5.13292 11.1924 2.45091 8.33297 1.81716C 5.19466 1.12258 2.06142 3.34829 1.71666 6.52209C 1.68624 6.7908 1.67103 7.05951 1.67103 7.32822C 1.66596 9.57421 1.67103 11.8202 1.67103 14.0713C 1.66089 14.1777 1.66089 14.2791 1.66089 14.4059Z"/>
</defs>
</svg>
