<svg width="11" height="14" viewBox="0 0 11 14" version="1.1" xmlns="http://www.w3.org/2000/svg" xmlns:xlink="http://www.w3.org/1999/xlink">
<title>periscope</title>
<desc>Created using Figma</desc>
<g id="Canvas" transform="translate(-5605 -36447)">
<g id="periscope">
<g id="Symbol">
<g id="Periscope_1_">
<use xlink:href="#path0_fill" transform="translate(5605.95 36448)" fill="#FFFFFF"/>
</g>
</g>
</g>
</g>
<defs>
<path id="path0_fill" fill-rule="evenodd" d="M 4.91113 12.7422C 5.89551 12.7422 9.82275 8.67969 9.82275 4.97656C 9.82275 2.22656 7.625 0 4.91113 0C 2.19727 0 0 2.22656 0 4.97656C 0 8.67578 3.92725 12.7422 4.91113 12.7422ZM 4.22705 2.05469C 4.44336 2.00391 4.67285 1.97656 4.91113 1.97656C 6.55713 1.97656 7.89404 3.32812 7.88965 4.99609C 7.88965 6 7.40869 6.88281 6.66797 7.43359C 6.17578 7.79688 5.56836 8.01172 4.91113 8.01172C 3.26514 8.01172 1.93262 6.66406 1.93262 4.99609C 1.93262 4.33203 2.14014 3.72266 2.49756 3.22656C 2.53711 3.85938 3.05762 4.36719 3.69775 4.36719C 4.36377 4.36719 4.90234 3.82422 4.90234 3.14844C 4.90234 2.66797 4.62891 2.25391 4.22705 2.05469Z"/>
</defs>
</svg>
