<svg width="18" height="18" viewBox="0 0 18 18" version="1.1" xmlns="http://www.w3.org/2000/svg" xmlns:xlink="http://www.w3.org/1999/xlink">
<title>producthunt</title>
<desc>Created using Figma</desc>
<g id="Canvas" transform="translate(-5602 -36891)">
<g id="producthunt">
<use xlink:href="#path0_fill" transform="translate(5602.66 36891.3)" fill="#FFFFFF"/>
</g>
</g>
<defs>
<path id="path0_fill" fill-rule="evenodd" d="M 9.68803 5.98438L 9.68803 5.98438L 7.26611 5.98438L 7.26611 8.54894L 9.68803 8.54894C 10.3965 8.54894 10.9703 7.97458 10.9703 7.26666C 10.9703 6.55873 10.3965 5.98438 9.68803 5.98438L 9.68803 5.98438ZM 8.54855 0C 3.82708 0 0 3.82708 0 8.54855C 0 13.27 3.82708 17.0971 8.54855 17.0971C 13.2695 17.0971 17.0971 13.27 17.0971 8.54855C 17.0971 3.82708 13.2695 0 8.54855 0L 8.54855 0ZM 9.68826 10.2574L 9.68826 10.2574L 7.26635 10.2574L 7.26635 12.822L 5.55664 12.822L 5.55664 4.27344L 9.68826 4.27344C 11.3408 4.27344 12.6803 5.61289 12.6803 7.26543C 12.6803 8.91797 11.3408 10.2574 9.68826 10.2574L 9.68826 10.2574Z"/>
</defs>
</svg>
