<svg width="14" height="16" viewBox="0 0 14 16" version="1.1" xmlns="http://www.w3.org/2000/svg" xmlns:xlink="http://www.w3.org/1999/xlink">
<title>quora</title>
<desc>Created using Figma</desc>
<g id="Canvas" transform="translate(-5172 -36780)">
<g id="quora">
<use xlink:href="#path0_fill" transform="translate(5172.21 36780.9)" fill="#FFFFFF"/>
</g>
</g>
<defs>
<path id="path0_fill" fill-rule="evenodd" d="M 13.377 6.78125C 13.377 9.21484 12.1079 11.3555 10.2021 12.5469C 10.6035 13.4688 11.9199 13.8008 11.9199 13.8008L 11.9199 14.9492C 10.5684 15.207 9.6875 14.9414 9.06201 14.3984C 8.7373 14.1172 8.48145 13.7617 8.26465 13.3672C 7.97021 13.4414 7.66846 13.4922 7.36084 13.5234C 7.13965 13.5469 6.91553 13.5586 6.68848 13.5586C 2.99365 13.5586 0 10.5234 0 6.78125C 0 3.03516 2.99365 0 6.68848 0C 10.3818 0 13.377 3.03516 13.377 6.78125ZM 9.20996 10.5938C 9.79492 9.83594 10.1558 8.80859 10.1558 7.67578L 10.1558 5.92969C 10.1558 3.59375 8.62598 1.69922 6.73877 1.69922C 4.85205 1.69922 3.32324 3.59375 3.32324 5.92969L 3.32324 7.67578C 3.32324 9.10156 3.89404 10.3633 4.76807 11.1289C 5.32471 11.6172 6.00439 11.9023 6.73877 11.9023C 7.0127 11.9023 7.27686 11.8633 7.53125 11.7891C 6.85303 10.6211 5.86084 10.582 5.86084 10.582L 5.86084 9.38672L 5.86084 9.25C 6.48877 9.21484 7.05957 9.3125 7.56494 9.49609C 8.23584 9.74219 8.79053 10.1445 9.20996 10.5938Z"/>
</defs>
</svg>
