<svg width="10" height="8" viewBox="0 0 10 8" version="1.1" xmlns="http://www.w3.org/2000/svg" xmlns:xlink="http://www.w3.org/1999/xlink">
<title>raspberrypi</title>
<desc>Created using Figma</desc>
<g id="Canvas" transform="translate(-5606 -36675)">
<g id="raspberrypi">
<g id="Symbol">
<g id="Shape">
<use xlink:href="#path0_fill" transform="translate(5605.96 36669.6)" fill="#FFFFFF"/>
</g>
</g>
</g>
</g>
<defs>
<path id="path0_fill" fill-rule="evenodd" d="M 2.07422 7.17969C 2.07422 8.07422 2.78906 8.64453 3.6499 8.4375C 4.46777 8.24219 5.06689 7.38672 4.97266 6.54688C 4.93652 6.23047 4.79541 5.96094 4.58838 5.76562C 4.32959 5.51953 3.96875 5.39453 3.58154 5.44531C 3.35547 5.47266 3.14062 5.55078 2.94775 5.66797C 2.75049 5.78906 2.57617 5.94531 2.43604 6.13281C 2.21045 6.43359 2.07422 6.80078 2.07422 7.17969ZM 0.45166 7.93359C 0.494141 8.25391 0.614258 8.54297 0.849609 8.77734C 0.960938 8.88672 1.05957 8.88281 1.16211 8.75781C 1.25635 8.65234 1.31201 8.52344 1.35938 8.39453C 1.52197 7.95312 1.58594 7.5 1.60303 7.01172C 1.59912 6.93359 1.59473 6.83203 1.58203 6.73047C 1.56445 6.60938 1.54346 6.48828 1.47461 6.38672L 1.4209 6.32812C 1.39355 6.30469 1.36279 6.29297 1.33008 6.28906C 1.29199 6.28516 1.25098 6.29688 1.20947 6.32031C 1.06396 6.41016 0.931152 6.51562 0.819824 6.64453C 0.494141 7.01562 0.382812 7.45312 0.45166 7.93359ZM 3.47852 11.1133C 3.42285 11.3516 3.25586 11.4727 2.95166 11.4805C 2.56641 11.4883 2.23242 11.3398 1.93701 11.1016C 1.47021 10.7305 1.26465 10.2344 1.23926 9.65625C 1.23486 9.5625 1.24756 9.46484 1.26904 9.36719C 1.34619 9.03516 1.54736 8.89844 1.91113 8.95312C 2.05713 8.97266 2.19043 9.02344 2.31543 9.08984C 2.44336 9.16016 2.56299 9.24609 2.67773 9.33984C 3.09326 9.67188 3.37109 10.0898 3.47412 10.6172C 3.49121 10.707 3.5 10.8047 3.5127 10.8945C 3.5127 10.9609 3.49561 11.0391 3.47852 11.1133ZM 6.70703 12.0664C 6.62549 12.207 6.50586 12.3164 6.37744 12.4219C 5.61963 13.0078 4.66455 12.9609 3.9668 12.3008L 3.86816 12.1953C 3.78174 12.0898 3.75098 12.0039 3.78027 11.9219C 3.7998 11.8672 3.84766 11.8164 3.92383 11.7617C 4.15088 11.6016 4.4165 11.5391 4.68604 11.4844L 4.86768 11.4492L 5.03174 11.4297L 5.27686 11.418C 5.69238 11.418 6.03027 11.4609 6.35596 11.582C 6.4585 11.6211 6.56152 11.6641 6.64697 11.7344C 6.771 11.8438 6.78809 11.9297 6.70703 12.0664ZM 5.29834 10.9922C 5.61523 10.9961 5.91064 10.9102 6.18018 10.7461C 6.30322 10.668 6.40918 10.5781 6.49805 10.4766C 6.68799 10.2617 6.79932 10.0039 6.82861 9.74219C 6.87256 9.34375 6.73193 8.92578 6.39453 8.61719C 5.80811 8.07031 4.81885 8.06641 4.22363 8.60938C 3.70557 9.07812 3.62012 9.83203 4.03516 10.3828C 4.35205 10.7969 4.78467 10.9805 5.29834 10.9922ZM 7.81152 11.4922C 7.67041 11.5195 7.5249 11.5234 7.37891 11.4961C 7.0835 11.4414 6.94238 11.2695 6.94238 10.9414C 6.94238 10.7383 6.9751 10.543 7.03369 10.3555C 7.09326 10.1641 7.1792 9.98047 7.28467 9.80859C 7.39893 9.625 7.53418 9.45703 7.68604 9.30859C 7.85449 9.14062 8.04346 8.99219 8.24805 8.86328C 8.38525 8.77734 8.53076 8.72266 8.69775 8.72266C 8.80957 8.72266 8.90479 8.75 8.98193 8.80469C 9.04102 8.84766 9.08887 8.91016 9.12598 8.98828C 9.23291 9.21875 9.27588 9.46875 9.27588 9.75781C 9.30078 10.2734 9.02588 10.7383 8.66162 11.0586C 8.39844 11.2891 8.08838 11.4453 7.81152 11.4922ZM 9.19482 8.64062C 9.33594 8.86328 9.45996 8.875 9.62695 8.67188C 9.87549 8.375 9.97412 8.03125 9.99121 7.64062C 9.97412 7.07422 9.73828 6.62109 9.25049 6.30859C 9.10059 6.21094 8.98926 6.24609 8.91211 6.41016C 8.85205 6.53906 8.83496 6.67578 8.82666 6.8125C 8.80957 7.16016 8.83936 7.50781 8.91211 7.85156C 8.97217 8.125 9.04053 8.39844 9.19482 8.64062Z"/>
</defs>
</svg>
