<svg width="24" height="24" viewBox="0 0 15 8" version="1.1" xmlns="http://www.w3.org/2000/svg" xmlns:xlink="http://www.w3.org/1999/xlink">
<title>reddit</title>
<desc>Created using Figma</desc>
<g id="Canvas" transform="translate(-5172 -36842)">
<g id="reddit">
<use xlink:href="#path0_fill" transform="translate(5171.28 36837.5)" fill="#FFFFFF"/>
</g>
</g>
<defs>
<path id="path0_fill" fill-rule="evenodd" d="M 13.8618 8.40625C 13.8618 7.83203 13.6548 7.25391 13.3188 6.78906C 12.9956 6.33984 12.5859 5.96484 12.1265 5.66016C 11.6353 5.33594 11.0869 5.08594 10.5254 4.91016C 10.3179 4.84766 10.1089 4.78906 9.89795 4.74219C 9.2666 4.59766 8.62012 4.52734 7.97363 4.52734C 7.10596 4.52734 6.23877 4.65625 5.40771 4.91016C 4.32812 5.25391 3.28711 5.85938 2.61963 6.79297C 2.28125 7.25781 2.08301 7.83594 2.08301 8.41406C 2.08301 8.625 2.10986 8.83984 2.1665 9.04688C 2.2876 9.50781 2.52539 9.92188 2.83301 10.2812C 3.14062 10.6445 3.51758 10.9531 3.91406 11.2031L 4.18066 11.3594C 4.73438 11.668 5.32861 11.8945 5.94287 12.0469C 6.27539 12.1289 6.61377 12.1914 6.95459 12.2305C 7.29395 12.2695 7.63574 12.2852 7.97705 12.2852L 8.4043 12.2734L 8.64502 12.2617C 9.97168 12.1523 11.3037 11.7617 12.3809 10.9609C 12.7236 10.707 13.0415 10.3984 13.2925 10.0508C 13.5444 9.70312 13.7295 9.3125 13.8115 8.88672C 13.8452 8.72656 13.8618 8.56641 13.8618 8.40625ZM 2.15527 5.11719C 2.33057 5.11719 2.50781 5.17188 2.6792 5.25391C 2.57373 5.34375 2.47119 5.4375 2.37158 5.53516C 2.13721 5.76953 1.92236 6.02344 1.73682 6.29688C 1.60938 6.48828 1.49609 6.6875 1.40039 6.89844C 1.34619 6.85156 1.2959 6.79688 1.25098 6.73828L 1.16504 6.61328C 1.11377 6.52734 1.07568 6.4375 1.05371 6.34375C 1.03955 6.28125 1.03174 6.21875 1.03174 6.15625L 1.03418 6.09375C 1.04443 5.82812 1.17041 5.58984 1.36133 5.41406C 1.45215 5.33203 1.55713 5.26172 1.66992 5.21094C 1.79492 5.15625 1.92969 5.125 2.06641 5.12109L 2.15527 5.11719ZM 14.8047 5.70703C 14.877 5.83984 14.9087 5.98047 14.9092 6.12109C 14.9092 6.28516 14.8638 6.45312 14.7837 6.60156C 14.7227 6.71484 14.6406 6.81641 14.5444 6.90234C 14.2456 6.25391 13.7837 5.70312 13.2568 5.24609C 13.4224 5.16406 13.6094 5.12109 13.7969 5.12109C 14.0044 5.12109 14.2109 5.17188 14.3882 5.26953C 14.5645 5.37109 14.7114 5.51562 14.8047 5.70703Z"/>
</defs>
</svg>
