<svg width="16" height="17" viewBox="0 0 16 17" version="1.1" xmlns="http://www.w3.org/2000/svg" xmlns:xlink="http://www.w3.org/1999/xlink">
<title>slack</title>
<desc>Created using Figma</desc>
<g id="Canvas" transform="translate(-5171 -36501)">
<g id="slack">
<use xlink:href="#path0_fill" transform="translate(5171.28 36501.7)" fill="#FFFFFF"/>
</g>
</g>
<defs>
<path id="path0_fill" fill-rule="evenodd" d="M 6.42383 7.14757L 7.09584 9.15434L 9.18113 8.45599L 8.50911 6.44922L 6.42383 7.14757ZM 12.2403 9.13969L 11.2294 9.47813L 11.5795 10.5247C 11.7214 10.948 11.4932 11.4064 11.0694 11.5483C 10.9772 11.5795 10.8836 11.5927 10.7919 11.5902C 10.4613 11.5815 10.1565 11.3698 10.0458 11.0382L 9.69516 9.99214L 7.61036 10.6905L 7.96051 11.7365C 8.10242 12.1603 7.87419 12.6187 7.4504 12.7607C 7.35823 12.7914 7.2646 12.8045 7.17292 12.8021C 6.84228 12.7938 6.53748 12.5817 6.42678 12.2505L 6.07614 11.204L 5.0652 11.5429C 4.97303 11.5737 4.87891 11.5868 4.78723 11.5844C 4.45707 11.5761 4.15228 11.364 4.04109 11.0323C 3.89918 10.609 4.12741 10.1506 4.55119 10.0087L 5.56262 9.66979L 4.89012 7.66302L 3.87918 8.00195C 3.78701 8.03267 3.69338 8.04584 3.60121 8.0434C 3.27105 8.03511 2.96626 7.82297 2.85507 7.49136C 2.71316 7.06806 2.94188 6.60965 3.36517 6.46773L 4.37661 6.1288L 4.02597 5.08274C 3.88406 4.65896 4.11229 4.20055 4.53607 4.05912C 4.95986 3.91721 5.41827 4.14544 5.56019 4.56923L 5.91033 5.61528L 7.99562 4.91694L 7.64498 3.87088C 7.50307 3.44709 7.73179 2.98868 8.15509 2.84677C 8.57888 2.70486 9.03729 2.93357 9.1792 3.35687L 9.52935 4.40342L 10.5408 4.06449C 10.9646 3.92257 11.4225 4.15129 11.5644 4.57459C 11.7063 4.99838 11.4781 5.45679 11.0543 5.5987L 10.0434 5.93715L 10.7154 7.9444L 11.7268 7.60547C 12.1501 7.46405 12.6085 7.69228 12.7504 8.11558C 12.8923 8.53936 12.6641 8.99778 12.2403 9.13969ZM 14.9522 5.65775C 13.3439 0.295309 11.0201 -0.955569 5.65767 0.653261C 0.295721 2.2616 -0.955645 4.58536 0.653185 9.9478C 2.26201 15.3098 4.58577 16.5611 9.94772 14.9523C 15.3102 13.3435 16.561 11.0197 14.9522 5.65775L 14.9522 5.65775Z"/>
</defs>
</svg>
