<svg width="19" height="9" viewBox="0 0 19 9" version="1.1" xmlns="http://www.w3.org/2000/svg" xmlns:xlink="http://www.w3.org/1999/xlink">
<title>soundcloud</title>
<desc>Created using Figma</desc>
<g id="Canvas" transform="translate(-5602 -36172)">
<g id="soundcloud">
<g id="Shape">
<use xlink:href="#path0_fill" transform="translate(5612.11 36172.3)" fill="#FFFFFF"/>
</g>
<g id="Shape">
<use xlink:href="#path1_fill" transform="translate(5611.32 36172.9)" fill="#FFFFFF"/>
</g>
<g id="Shape">
<use xlink:href="#path2_fill" transform="translate(5610.59 36173.3)" fill="#FFFFFF"/>
</g>
<g id="Shape">
<use xlink:href="#path3_fill" transform="translate(5609.84 36174)" fill="#FFFFFF"/>
</g>
<g id="Shape">
<use xlink:href="#path4_fill" transform="translate(5609.1 36173.9)" fill="#FFFFFF"/>
</g>
<g id="Shape">
<use xlink:href="#path5_fill" transform="translate(5608.36 36173.8)" fill="#FFFFFF"/>
</g>
<g id="Shape">
<use xlink:href="#path6_fill" transform="translate(5607.6 36174)" fill="#FFFFFF"/>
</g>
<g id="Shape">
<use xlink:href="#path7_fill" transform="translate(5606.88 36174.3)" fill="#FFFFFF"/>
</g>
<g id="Shape">
<use xlink:href="#path8_fill" transform="translate(5606.16 36175)" fill="#FFFFFF"/>
</g>
<g id="Shape">
<use xlink:href="#path9_fill" transform="translate(5605.43 36176.1)" fill="#FFFFFF"/>
</g>
<g id="Shape">
<use xlink:href="#path10_fill" transform="translate(5604.72 36176)" fill="#FFFFFF"/>
</g>
<g id="Shape">
<use xlink:href="#path11_fill" transform="translate(5604 36176.1)" fill="#FFFFFF"/>
</g>
<g id="Shape">
<use xlink:href="#path12_fill" transform="translate(5603.29 36176.4)" fill="#FFFFFF"/>
</g>
<g id="Shape">
<use xlink:href="#path13_fill" transform="translate(5602.69 36177)" fill="#FFFFFF"/>
</g>
</g>
</g>
<defs>
<path id="path0_fill" d="M 0 4.04023C 0 2.9089 0 1.77757 0 0.642688C 0 0.372308 0.0177882 0.350962 0.27038 0.251349C 2.4014 -0.581137 4.90598 0.738744 5.42539 2.96582C 5.46097 3.12236 5.48943 3.27889 5.51433 3.43543C 5.52856 3.53149 5.54991 3.56706 5.66019 3.52793C 6.9196 3.07611 8.2715 3.86235 8.56678 5.15377C 8.84427 6.35625 7.94419 7.67257 6.72037 7.81132C 6.56739 7.82911 6.41441 7.83622 6.25788 7.83622C 4.30829 7.83622 2.35871 7.83622 0.409128 7.83266C 0.067595 7.83266 0.00355763 7.76863 0.00355763 7.42709C 0 6.30644 0 5.17155 0 4.04023Z"/>
<path id="path1_fill" d="M 0.0426143 2.86389C 0.0604025 2.01006 0.0781906 1.15979 0.0959788 0.305956C 0.0995364 0.113844 0.188477 0 0.337898 0C 0.487318 0 0.583374 0.106729 0.586932 0.302399C 0.615393 1.54757 0.633181 2.78918 0.672315 4.03436C 0.700776 5.00559 0.6652 5.97682 0.594047 6.9445C 0.59049 6.99075 0.59049 7.04055 0.579817 7.0868C 0.551356 7.22911 0.462415 7.30738 0.316552 7.29315C 0.177804 7.27892 0.106652 7.18998 0.0995364 7.05479C 0.0604025 6.19028 -0.0249807 5.32933 0.00703797 4.46483C 0.0248261 3.93118 0.0105956 3.39754 0.0105956 2.86745C 0.0177109 2.86389 0.0319414 2.86389 0.0426143 2.86389Z"/>
<path id="path2_fill" d="M 0.583684 2.8782C 0.651279 4.12693 0.622818 5.37566 0.537435 6.62439C 0.526762 6.77737 0.459167 6.87342 0.302631 6.88054C 0.170999 6.88765 0.0856157 6.78092 0.0713852 6.61727C -0.0638048 4.78153 0.0286936 2.94935 0.0607123 1.11362C 0.0642699 0.846793 0.0678276 0.579971 0.0713852 0.313148C 0.0749428 0.117478 0.163884 -0.00348125 0.306189 7.63808e-05C 0.444937 0.00363401 0.533877 0.121036 0.533877 0.320263C 0.533877 1.1741 0.533877 2.02437 0.533877 2.8782C 0.551666 2.8782 0.569454 2.8782 0.583684 2.8782Z"/>
<path id="path3_fill" d="M 0.616639 2.2681C 0.616639 2.8302 0.630869 3.39587 0.613081 3.95797C 0.591735 4.60902 0.545486 5.26006 0.50991 5.91111C 0.502795 6.04274 0.431642 6.12457 0.296452 6.12457C 0.154147 6.12101 0.0865515 6.03207 0.0794363 5.89332C 0.0545328 5.45573 0.0260718 5.01815 0.0118413 4.58056C -0.034408 3.1326 0.0687634 1.69176 0.0829939 0.243803C 0.0829939 0.0943823 0.186165 -0.0159043 0.307125 0.00188385C 0.445872 0.019672 0.50991 0.105055 0.513467 0.24736C 0.531256 0.923311 0.552601 1.59926 0.57039 2.27165C 0.58462 2.27165 0.598851 2.2681 0.616639 2.2681Z"/>
<path id="path4_fill" d="M 0.083268 2.25574C 0.083268 1.59758 0.083268 0.93942 0.083268 0.284816C 0.083268 0.231451 0.0868256 0.178087 0.104614 0.12828C 0.133075 0.0393392 0.20067 -0.00335238 0.296726 0.000205248C 0.392782 0.00376288 0.453262 0.0535697 0.474608 0.142511C 0.488838 0.192317 0.488838 0.24924 0.488838 0.302604C 0.527972 1.57624 0.584894 2.84987 0.595567 4.1235C 0.602682 4.74964 0.527972 5.37579 0.488838 6.00193C 0.481723 6.13001 0.446147 6.24385 0.289611 6.24385C 0.12596 6.24385 0.0939409 6.12645 0.083268 5.9877C -0.00567282 4.77455 -0.0270186 3.5614 0.0370188 2.34824C 0.0370188 2.31978 0.0370188 2.28776 0.0370188 2.2593C 0.0512493 2.25574 0.0654798 2.25574 0.083268 2.25574Z"/>
<path id="path5_fill" d="M 0.496249 2.4826C 0.546056 3.33644 0.617208 4.18671 0.53894 5.04054C 0.506922 5.38919 0.489134 5.73784 0.467788 6.08649C 0.460673 6.211 0.442884 6.33552 0.282791 6.33908C 0.11914 6.34264 0.101352 6.22168 0.0906788 6.0936C -0.0160502 4.85199 -0.0196079 3.60682 0.0337566 2.3652C 0.0622177 1.67146 0.0728906 0.977725 0.0942364 0.283987C 0.097794 0.21995 0.0906788 0.152355 0.126255 0.091875C 0.168947 0.0171647 0.240099 -0.014854 0.321925 0.00649179C 0.432211 0.0349529 0.46423 0.120336 0.467788 0.223507C 0.478461 0.589944 0.496249 0.959937 0.499806 1.32637C 0.499806 1.71416 0.496249 2.09838 0.496249 2.4826Z"/>
<path id="path6_fill" d="M 0.0395526 2.81799C 0.0680136 1.82541 0.0929171 1.03918 0.117821 0.252939C 0.117821 0.242267 0.117821 0.228036 0.117821 0.217363C 0.114263 0.0999613 0.160512 0.00746285 0.277914 0.000347581C 0.413104 -0.00676768 0.455796 0.0964037 0.459353 0.213806C 0.470026 0.480628 0.480699 0.74745 0.484257 1.01427C 0.50916 2.1207 0.598101 3.22712 0.573197 4.33354C 0.562525 4.87786 0.502045 5.41862 0.459353 5.96294C 0.452238 6.06967 0.43445 6.18707 0.285029 6.18707C 0.128493 6.18707 0.117821 6.06967 0.110705 5.94871C 0.035995 4.83873 -0.0529459 3.72875 0.0395526 2.81799Z"/>
<path id="path7_fill" d="M 0.0551634 2.07423C 0.0729516 1.48367 0.0942974 0.889542 0.115643 0.298975C 0.115643 0.252726 0.122758 0.202919 0.126316 0.15667C 0.136989 0.0641715 0.183238 -0.00342349 0.282852 0.000134143C 0.371793 0.00369178 0.418042 0.0641715 0.4216 0.153112C 0.439388 0.50176 0.457176 0.850408 0.471406 1.19906C 0.506983 2.05645 0.560347 2.91384 0.57102 3.77478C 0.574578 4.25151 0.503425 4.73179 0.467849 5.20851C 0.457176 5.34014 0.457176 5.46822 0.439388 5.59629C 0.425157 5.70658 0.453618 5.86311 0.279294 5.86311C 0.10497 5.86667 0.122758 5.71013 0.112086 5.59985C 0.0800669 5.20851 0.0658363 4.82073 0.03026 4.42939C -0.0444503 3.64671 0.0409329 2.86047 0.0551634 2.07423Z"/>
<path id="path8_fill" d="M 0.554485 3.13072C 0.518909 3.54696 0.479775 4.04859 0.437084 4.55021C 0.422853 4.71031 0.408623 4.86684 0.390834 5.02693C 0.383719 5.10876 0.344585 5.16212 0.259202 5.16568C 0.170261 5.16924 0.131127 5.10876 0.120454 5.03405C 0.102666 4.85261 0.0955509 4.66761 0.0742051 4.48617C -0.0681002 3.28014 0.0279558 2.07054 0.084878 0.864505C 0.0955509 0.640374 0.102666 0.416243 0.116897 0.188555C 0.120454 0.0960561 0.138242 0 0.259202 0C 0.383719 0 0.390834 0.0960561 0.39795 0.188555C 0.426411 0.686623 0.458429 1.18113 0.483333 1.6792C 0.508236 2.13458 0.529582 2.58996 0.554485 3.13072Z"/>
<path id="path9_fill" d="M 0.551844 1.96381C 0.505595 2.47255 0.459346 2.98841 0.413097 3.50783C 0.405981 3.60032 0.402424 3.69638 0.391751 3.79244C 0.381078 3.87782 0.384636 3.98811 0.263676 3.99166C 0.139159 3.99522 0.135601 3.88849 0.128486 3.79955C 0.100025 3.46869 0.0929097 3.13783 0.0466605 2.81053C -0.074299 1.93179 0.0715639 1.06373 0.128486 0.192112C 0.135601 0.106729 0.139159 0 0.263676 0C 0.36329 0 0.381078 0.0889408 0.388193 0.167209C 0.445115 0.761333 0.494922 1.35902 0.551844 1.96381Z"/>
<path id="path10_fill" d="M 0.540049 2.07426C 0.479569 2.70396 0.422647 3.33722 0.362167 3.96692C 0.355052 4.03451 0.323033 4.08432 0.25188 4.08432C 0.166497 4.08432 0.152267 4.02028 0.145151 3.94913C 0.10246 3.45462 0.0668835 2.95655 0.0170766 2.46204C -0.0434031 1.85013 0.0739988 1.24533 0.10246 0.636974C 0.109575 0.466208 0.134479 0.295442 0.145151 0.124675C 0.148709 0.0570802 0.170055 0.00371569 0.241207 0.000158058C 0.319475 -0.00339957 0.355052 0.0535225 0.358609 0.128233C 0.422647 0.775722 0.479569 1.42321 0.540049 2.07426Z"/>
<path id="path11_fill" d="M 0.525636 1.93187C 0.539866 2.25918 0.447368 2.68253 0.418907 3.10589C 0.404676 3.33002 0.376215 3.55415 0.351312 3.77828C 0.344196 3.84588 0.347754 3.93838 0.24814 3.93482C 0.152084 3.93126 0.162757 3.84232 0.155642 3.77117C 0.102277 3.19839 0.0346822 2.62917 0.00266354 2.05639C -0.011567 1.76822 0.0346822 1.48005 0.0595857 1.18833C 0.0880467 0.853911 0.123623 0.515936 0.155642 0.181518C 0.162757 0.106808 0.137854 0.00363664 0.244583 7.90056e-05C 0.365542 -0.00347863 0.347754 0.113923 0.354869 0.188634C 0.411791 0.736509 0.461598 1.28438 0.525636 1.93187Z"/>
<path id="path12_fill" d="M 0 1.6792C 0.0569221 1.16335 0.113844 0.640374 0.170766 0.117402C 0.177882 0.067595 0.177882 0 0.252592 0C 0.327302 0 0.327302 0.0640374 0.334417 0.113844C 0.394897 0.60124 0.476723 1.08864 0.508741 1.57603C 0.54076 2.06698 0.40557 2.55082 0.359321 3.03822C 0.352206 3.0987 0.34509 3.15562 0.334417 3.21254C 0.327302 3.26591 0.327302 3.32994 0.25615 3.3335C 0.184997 3.33706 0.177882 3.27302 0.170766 3.21966C 0.145863 3.00264 0.12096 2.78563 0.0960561 2.56861C 0.0640374 2.27688 0.0320187 1.9816 0 1.6792Z"/>
<path id="path13_fill" d="M 0.416943 1.06797C 0.367136 1.38816 0.313771 1.71546 0.260407 2.04276C 0.253291 2.08901 0.231946 2.12459 0.178581 2.11747C 0.125217 2.11036 0.118101 2.06767 0.110986 2.02497C 0.0433912 1.51623 -0.0668954 1.01105 0.0540641 0.495193C 0.0825251 0.370675 0.0896404 0.239043 0.107429 0.107411C 0.114544 0.0576038 0.118101 0.00423928 0.178581 0.000681648C 0.239061 -0.00643362 0.253291 0.0433732 0.260407 0.0931801C 0.317329 0.416925 0.367136 0.737112 0.416943 1.06797Z"/>
</defs>
</svg>
