<svg width="12" height="14" viewBox="0 0 12 14" version="1.1" xmlns="http://www.w3.org/2000/svg" xmlns:xlink="http://www.w3.org/1999/xlink">
<title>twitch</title>
<desc>Created using Figma</desc>
<g id="Canvas" transform="translate(-5605 -36281)">
<g id="twitch">
<g id="Symbol">
<g id="Group">
<g id="Dialog_2_">
<use xlink:href="#path0_fill" transform="translate(5605.04 36281.6)" fill="#FFFFFF"/>
</g>
<g id="_x7C__5_">
<use xlink:href="#path1_fill" transform="translate(5612.95 36284.7)" fill="#FFFFFF"/>
</g>
<g id="_x7C__4_">
<use xlink:href="#path2_fill" transform="translate(5609.96 36284.7)" fill="#FFFFFF"/>
</g>
</g>
</g>
</g>
</g>
<defs>
<path id="path0_fill" fill-rule="evenodd" d="M 5.94531 10.7578L 8.4917 10.7578L 11.8906 7.44531L 11.8906 0L 0.847168 0L 0 2.125L 0 10.7578L 2.97266 10.7578L 2.97266 12.4141L 4.67188 12.4141L 5.94531 10.7578ZM 10.6172 1.24219L 10.6172 7.03516L 8.4917 9.10547L 5.94531 9.10547L 4.24561 10.7578L 4.24561 9.10547L 1.69922 9.10547L 1.69922 1.24219L 10.6172 1.24219Z"/>
<path id="path1_fill" d="M 0 0L 0.933392 0L 0.933392 3.20092L 0 3.20092L 0 0Z"/>
<path id="path2_fill" d="M 0 0L 0.928319 0L 0.928319 3.19585L 0 3.19585L 0 0Z"/>
</defs>
</svg>
