<svg width="16" height="13" viewBox="0 0 16 13" version="1.1" xmlns="http://www.w3.org/2000/svg" xmlns:xlink="http://www.w3.org/1999/xlink">
<title>Shape</title>
<desc>Created using Figma</desc>
<g id="Canvas" transform="translate(-5172 -36058)">
<g id="Shape">
<use xlink:href="#path0_fill" transform="translate(5172.21 36058.2)" fill="#FFFFFF"/>
</g>
</g>
<defs>
<path id="path0_fill" d="M 7.31994 3.75759C 6.35548 1.08567 10.6963 -1.45462 12.4848 0.984C 12.4848 0.984 13.1782 0.959134 14.4434 0.277811C 14.4434 0.277811 14.1417 1.24122 13.1684 1.87878C 13.1684 1.87878 13.9081 1.87397 14.8036 1.47496C 14.8036 1.47496 14.2391 2.38986 13.3631 3.00299C 13.3631 3.00299 13.3437 4.37531 13.1393 5.2318C 12.9349 6.08829 12.2535 8.47281 10.2097 10.1468C 8.16582 11.8209 5.67421 12.1907 4.26294 12.0934C 2.85172 11.9961 1.11929 11.4608 0 10.7697C 0 10.7697 2.55974 11.0423 4.44789 9.48501C 4.44789 9.48501 2.54029 9.5726 1.63512 7.37302C 1.63512 7.37302 2.28721 7.48978 2.98799 7.29517C 2.98799 7.29517 0.58396 6.85719 0.554784 4.26828C 0.554784 4.26828 1.34314 4.65756 1.9271 4.61866C 1.9271 4.61866 -0.369838 2.86673 1.03171 0.599022C 1.03171 0.599022 3.33042 3.64597 7.31994 3.75759Z"/>
</defs>
</svg>
