<svg width="17" height="15" viewBox="0 0 17 15" version="1.1" xmlns="http://www.w3.org/2000/svg" xmlns:xlink="http://www.w3.org/1999/xlink">
<title>vimeo</title>
<desc>Created using Figma</desc>
<g id="Canvas" transform="translate(-5602 -36225)">
<g id="vimeo">
<g id="Shape">
<use xlink:href="#path0_fill" transform="translate(5602.66 36225.2)" fill="#FFFFFF"/>
</g>
</g>
</g>
<defs>
<path id="path0_fill" d="M 0 3.72291C 0.222733 3.48449 0.445466 3.24293 0.674472 3.00765C 1.43678 2.22025 2.23674 1.47362 3.15904 0.868163C 3.60451 0.573278 4.07193 0.325448 4.58955 0.178006C 5.28598 -0.0196305 5.90712 0.221925 6.28357 0.843067C 6.65689 1.46107 6.82315 2.15123 6.96432 2.84766C 7.16823 3.84525 7.28117 4.85853 7.53527 5.84671C 7.74545 6.66549 7.93682 7.49054 8.26621 8.27168C 8.31326 8.38147 8.37601 8.485 8.43875 8.58852C 8.62697 8.89595 8.85912 8.92732 9.13832 8.69518C 9.44261 8.44108 9.68417 8.13364 9.9069 7.81366C 10.3681 7.15487 10.7853 6.46785 11.1304 5.74005C 11.3468 5.28204 11.4598 4.79579 11.3437 4.27817C 11.1806 3.55664 10.5845 3.27117 9.89435 3.44684C 9.64025 3.50959 9.39869 3.60997 9.16028 3.76683C 9.22929 3.28372 9.37674 2.85394 9.59947 2.44925C 10.2049 1.34186 11.1147 0.598375 12.3162 0.203102C 12.9875 -0.0196305 13.6651 -0.0698238 14.3521 0.105853C 15.196 0.322311 15.8172 1.05011 15.9458 1.91281C 16.0744 2.76923 15.8987 3.58801 15.6666 4.39738C 15.2556 5.82475 14.5717 7.12037 13.731 8.34069C 12.4542 10.1947 10.9139 11.8009 9.15087 13.1906C 8.81833 13.451 8.48894 13.7176 8.08426 13.8682C 7.39096 14.1317 6.76982 13.9561 6.19887 13.5357C 5.55891 13.062 5.1605 12.422 4.90326 11.6785C 4.51426 10.5555 4.17545 9.41357 3.8241 8.27795C 3.44765 7.06076 3.09316 5.84044 2.6477 4.64521C 2.59123 4.49463 2.52221 4.34719 2.45006 4.20288C 2.35595 4.02093 2.18655 3.98015 1.99832 3.98642C 1.62187 4.00524 1.31444 4.19661 1.00387 4.37856C 0.900342 4.43816 0.799956 4.50718 0.705843 4.57933C 0.63369 4.6358 0.589771 4.6358 0.530167 4.55423C 0.35449 4.32836 0.175677 4.10563 0 3.87976C 0 3.82643 0 3.77624 0 3.72291Z"/>
</defs>
</svg>
