<svg width="14" height="14" viewBox="0 0 14 14" version="1.1" xmlns="http://www.w3.org/2000/svg" xmlns:xlink="http://www.w3.org/1999/xlink">
<title>vsco</title>
<desc>Created using Figma</desc>
<g id="Canvas" transform="translate(-5604 -36113)">
<g id="vsco">
<g id="Shape">
<use xlink:href="#path0_fill" transform="translate(5604.48 36113.3)" fill="#FFFFFF"/>
</g>
</g>
</g>
<defs>
<path id="path0_fill" fill-rule="evenodd" d="M 6.42822 12.8633C 9.97412 12.8672 12.8628 9.97656 12.8628 6.43359C 12.8628 2.88672 9.98535 0.0078125 6.43408 0C 2.89404 -0.0078125 0.000976562 2.88281 0 6.42969C -0.000976562 9.97656 2.88281 12.8594 6.42822 12.8633ZM 6.43115 9.90234C 4.51904 9.89844 2.97021 8.35156 2.96924 6.4375C 2.96924 4.52734 4.53027 2.96484 6.43311 2.96875C 6.79834 2.96875 7.15771 3.02734 7.49854 3.13672C 8.01709 3.30469 8.49365 3.59375 8.88525 3.98828C 9.53467 4.64062 9.89697 5.52734 9.89209 6.44922C 9.88623 8.33203 8.34521 9.90234 6.43115 9.90234ZM 6.29102 10.1406C 5.81641 10.1211 5.34961 10.0117 4.91504 9.82031L 4.43311 10.8242C 5.01611 11.0938 5.64893 11.2383 6.29102 11.25L 6.29102 10.1406ZM 2.71729 9.53125L 3.58594 8.82812C 3.74219 9.01562 3.9165 9.1875 4.10596 9.33594C 4.20508 9.41406 4.30859 9.48828 4.41553 9.55859L 4.50146 9.61328L 4.68457 9.71484L 4.20361 10.7188C 3.6333 10.4258 3.12744 10.0234 2.71729 9.53125ZM 8.63672 10.7266C 9.2085 10.4258 9.71631 10.0195 10.1338 9.52734L 9.26611 8.83594C 9.04102 9.09766 8.78125 9.32812 8.49414 9.51953C 8.38525 9.59375 8.27246 9.66016 8.15625 9.72266L 8.63672 10.7266ZM 11.0859 7.61328C 11.1118 7.87891 10.5566 9.06641 10.2754 9.33594L 9.41162 8.64062C 9.69824 8.25781 9.90479 7.82422 10.019 7.36328L 11.0859 7.61328ZM 2.70801 6.40234C 2.71045 6.16797 2.73486 5.9375 2.78125 5.71094L 1.70459 5.46094C 1.63184 5.78125 1.6001 6.10156 1.6001 6.42188C 1.6001 6.73828 1.63086 7.05469 1.68311 7.375L 2.77002 7.125C 2.72559 6.88672 2.70508 6.64453 2.70801 6.40234ZM 7.92676 9.83984L 8.4082 10.8438C 8.21777 10.9258 8.02246 10.9961 7.82373 11.0586C 7.67725 11.1016 7.52881 11.1367 7.37891 11.168C 7.10547 11.2227 6.82764 11.2539 6.54785 11.2617L 6.54785 10.1523C 7.02344 10.1406 7.49219 10.0352 7.92676 9.83984ZM 9.40088 4.20703C 9.5 4.33984 9.58984 4.47656 9.67041 4.62109C 9.82031 4.88672 9.9375 5.17188 10.019 5.46875L 11.1045 5.23047C 10.939 4.60938 10.6548 4.02734 10.2666 3.51562L 9.40088 4.20703ZM 10.0825 7.12109C 10.1689 6.65234 10.165 6.17578 10.0713 5.71094L 11.1587 5.46875C 11.2051 5.70312 11.2344 5.9375 11.2466 6.17188C 11.2671 6.57422 11.2378 6.97656 11.1587 7.37109L 10.0825 7.12109ZM 3.61768 4.00391C 3.92822 3.64844 4.30029 3.35547 4.7168 3.13672L 4.23535 2.13281C 3.66748 2.42578 3.1626 2.82812 2.74951 3.3125L 3.61768 4.00391ZM 6.55957 1.61328C 7.19824 1.62891 7.82666 1.77344 8.4082 2.03906L 7.92725 3.03125C 7.68164 2.92578 7.42578 2.84766 7.16406 2.79297C 6.96533 2.75391 6.76318 2.73047 6.55957 2.72266L 6.55957 1.61328ZM 3.15039 4.68359C 3.24121 4.51172 3.34521 4.34766 3.46143 4.19531L 2.59375 3.50391C 2.47021 3.66406 2.35693 3.83203 2.25488 4.00781C 2.03662 4.37891 1.86865 4.77734 1.75635 5.19922L 2.84375 5.44922L 2.87646 5.34375L 2.9502 5.125C 2.99072 5.01562 3.03662 4.91016 3.08691 4.80859L 3.15039 4.68359ZM 3.06152 8.02734C 3.16455 8.24219 3.2876 8.44531 3.4292 8.63672L 2.5625 9.3125C 2.44531 9.15625 2.33838 8.99609 2.2417 8.82812L 2.12793 8.61719L 2.0498 8.46094L 1.97314 8.28516L 1.90479 8.10938L 1.83496 7.91016L 1.74561 7.60156L 2.82227 7.35938C 2.87988 7.58984 2.95996 7.8125 3.06152 8.02734ZM 6.30273 2.71875L 6.30273 1.60938C 5.67041 1.62891 5.04688 1.76562 4.46533 2.01562L 4.94629 3.01953C 5.37695 2.83984 5.83643 2.73828 6.30273 2.71875ZM 10.1138 3.33203L 9.24561 4.01172C 8.93896 3.66016 8.56982 3.36719 8.15674 3.14844L 8.63818 2.15234C 9.20117 2.44922 9.70215 2.84766 10.1138 3.33203ZM 6.57129 0.261719L 6.57129 1.35938C 6.90088 1.37109 7.229 1.41016 7.55127 1.48438L 7.8125 0.417969C 7.40479 0.324219 6.98926 0.273438 6.57129 0.261719ZM 6.32324 0.253906L 6.32324 1.35938C 5.99365 1.36719 5.66504 1.40625 5.34277 1.47266L 5.0918 0.398438L 5.39502 0.34375L 5.71875 0.296875C 5.91943 0.273438 6.12109 0.257812 6.32324 0.253906ZM 0.605957 4.34766C 0.465332 4.74219 0.367188 5.14844 0.313477 5.5625L 1.41113 5.69922C 1.43701 5.50781 1.47461 5.32031 1.52344 5.13281C 1.55762 5.00391 1.59717 4.875 1.64209 4.75L 0.605957 4.34766ZM 1.42236 10.0508L 2.32666 9.42578L 2.42236 9.54297L 2.64258 9.80469C 2.74951 9.92578 2.86426 10.0391 2.97754 10.1562L 2.24854 10.9805C 1.94336 10.6992 1.6665 10.3867 1.42236 10.0508ZM 1.27539 9.85547L 2.17285 9.23438L 1.71045 8.36328L 0.700684 8.75391C 0.760742 8.90625 0.82666 9.05469 0.898926 9.19922C 1.01074 9.42578 1.13623 9.64453 1.27539 9.85547ZM 3.97314 1.98438C 3.68896 2.14453 3.41943 2.32812 3.16846 2.53906L 2.43652 1.71094C 2.74951 1.4375 3.09717 1.21484 3.46143 1.01172L 3.97314 1.98438ZM 1.3584 6.92578L 1.3584 5.9375L 0.282227 5.80469C 0.239258 6.21875 0.239258 6.63672 0.282227 7.05078L 1.3584 6.92578ZM 1.61865 8.12891L 0.606934 8.51172C 0.46582 8.11719 0.367188 7.71484 0.312988 7.30078L 1.38574 7.17578L 1.61865 8.12891ZM 10.5527 3.46484L 11.4512 2.84375C 11.3052 2.64062 11.1475 2.44531 10.9785 2.25781C 10.8691 2.13672 10.7554 2.02344 10.6372 1.91406L 9.91357 2.73047L 10.5527 3.46484ZM 11.5972 3.05469C 11.8257 3.39844 12.0186 3.76953 12.1724 4.15234L 11.1436 4.53906L 10.9307 4.09766C 10.8569 3.95703 10.7739 3.82031 10.6924 3.67969L 11.5972 3.05469ZM 2.98047 2.71094L 2.24805 1.88281C 1.94678 2.16406 1.67432 2.47656 1.43408 2.8125L 2.3335 3.44141C 2.52393 3.17578 2.74072 2.92969 2.98047 2.71094ZM 4.84326 12.4023C 4.44043 12.3008 4.05029 12.1562 3.68066 11.9648L 4.19482 10.9922C 4.48584 11.1367 4.79053 11.2539 5.10449 11.3359L 4.84326 12.4023ZM 4.84326 0.460938C 4.44043 0.5625 4.05029 0.710938 3.68066 0.898438L 4.19287 1.87109C 4.4834 1.72266 4.78809 1.60938 5.10303 1.52734L 4.84326 0.460938ZM 7.53369 11.4141L 7.79248 12.4688C 7.39062 12.5586 6.98193 12.6094 6.57129 12.6172L 6.57129 11.5312L 7.53369 11.4141ZM 6.30566 12.6094L 6.30566 11.5117C 5.98242 11.5039 5.66064 11.4648 5.34521 11.3984L 5.07373 12.4648C 5.24121 12.5 5.41016 12.5273 5.58008 12.5508L 5.90967 12.5859L 6.30566 12.6094ZM 1.27588 3.01953L 2.17334 3.64062L 1.70898 4.5L 0.701172 4.11719C 0.783203 3.91797 0.874512 3.72266 0.975098 3.53516L 1.14404 3.23047L 1.27588 3.01953ZM 9.43359 1.03516L 8.92676 1.99609L 9.72559 2.55078L 10.4478 1.74609L 10.2603 1.58984L 10.0142 1.40234C 9.82812 1.26953 9.63428 1.14453 9.43359 1.03516ZM 7.77002 11.3242C 8.08398 11.2422 8.38916 11.125 8.68018 10.9805L 9.19189 11.9531C 8.8252 12.1406 8.43945 12.2891 8.0415 12.3906L 7.77002 11.3242ZM 9.41162 11.8398C 9.77197 11.6406 10.1123 11.4062 10.4263 11.1367L 9.69385 10.3125C 9.44824 10.5234 9.18213 10.7109 8.89941 10.8672L 9.41162 11.8398ZM 3.16797 10.3242C 3.41357 10.5352 3.67969 10.7227 3.96289 10.8789L 3.45117 11.8477C 3.09033 11.6484 2.75049 11.418 2.43604 11.1523L 3.16797 10.3242ZM 11.4937 6.93359L 12.5791 7.07031C 12.6221 6.66016 12.6221 6.24609 12.5791 5.83594L 11.4937 5.96094C 11.5215 6.28516 11.5215 6.60938 11.4937 6.93359ZM 12.2559 4.38281C 12.3916 4.77344 12.4897 5.17578 12.5493 5.58594L 11.4512 5.71094C 11.4097 5.39062 11.3359 5.07422 11.2314 4.76953L 12.2559 4.38281ZM 12.5386 7.32031L 11.4536 7.18359C 11.4082 7.50391 11.3315 7.82031 11.2236 8.125L 12.2476 8.52344C 12.3828 8.13281 12.4805 7.73047 12.5386 7.32031ZM 10.521 9.42188L 11.4199 10.0508C 11.186 10.3828 10.916 10.6914 10.6152 10.9688L 9.8833 10.1445C 10.1201 9.92578 10.3335 9.68359 10.521 9.42188ZM 9.20312 0.929688C 8.83496 0.742188 8.44922 0.59375 8.05225 0.480469L 7.79102 1.54688C 7.95605 1.58984 8.11865 1.64062 8.27734 1.70312C 8.42188 1.75781 8.56348 1.82031 8.70117 1.89062L 9.20312 0.929688ZM 12.1519 8.74219C 12.0005 9.125 11.8076 9.49219 11.5767 9.83203L 10.6777 9.20312C 10.8555 8.9375 11.0063 8.65234 11.1274 8.35547L 12.1519 8.74219Z"/>
</defs>
</svg>
