<svg width="9" height="13" viewBox="0 0 9 13" version="1.1" xmlns="http://www.w3.org/2000/svg" xmlns:xlink="http://www.w3.org/1999/xlink">
<title>youtube</title>
<desc>Created using Figma</desc>
<g id="Canvas" transform="translate(-5606 -36780)">
<g id="youtube">
<g id="Symbol">
<g id="Shape">
<use xlink:href="#path0_fill" transform="translate(5606.29 36780)" fill="#FFFFFF"/>
</g>
<g id="Group">
<g id="Shape">
<use xlink:href="#path1_fill" transform="translate(5611.11 36789.4)" fill="#FFFFFF"/>
</g>
<g id="Shape">
<use xlink:href="#path2_fill" transform="translate(5613.75 36789.4)" fill="#FFFFFF"/>
</g>
</g>
</g>
</g>
</g>
<defs>
<path id="path0_fill" fill-rule="evenodd" d="M 1.40625 2.12109L 1.91699 0L 2.75244 0L 1.79639 3.10547L 1.79639 5.30859L 0.979492 5.30859L 0.979492 3.20312L 0 0L 0.826172 0L 1.35547 2.12109L 1.40625 2.12109ZM 3.45801 4.39062C 3.45801 4.49609 3.48584 4.58594 3.53711 4.64062C 3.55859 4.66406 3.58252 4.68359 3.60938 4.69531C 3.65186 4.71875 3.70068 4.73047 3.75488 4.73047C 3.85742 4.73047 3.93604 4.70312 3.9917 4.64062C 4.05225 4.57812 4.08008 4.49219 4.08008 4.39062L 4.08008 2.26172C 4.08008 2.17188 4.04736 2.10156 3.9917 2.05078C 3.96289 2.02344 3.92822 2.00391 3.88818 1.98828C 3.8501 1.97656 3.80713 1.97266 3.75977 1.97266C 3.67139 1.97266 3.59717 1.99609 3.5415 2.05078C 3.48584 2.10547 3.45801 2.17188 3.45801 2.26172L 3.45801 4.39062ZM 3.00781 1.56641C 2.81299 1.74609 2.71094 1.98438 2.71094 2.28906L 2.71094 4.32422C 2.71094 4.65234 2.80371 4.91797 2.99414 5.11719C 3.18457 5.3125 3.43994 5.41406 3.75977 5.41406C 4.08936 5.41406 4.34961 5.31641 4.54004 5.12891C 4.72559 4.94141 4.82275 4.67578 4.82275 4.33594L 4.82275 2.3125C 4.82275 2.01172 4.72559 1.76953 4.53516 1.58594C 4.34473 1.39453 4.09424 1.30078 3.79736 1.30078C 3.46777 1.29688 3.20312 1.38281 3.00781 1.56641ZM 6.7959 4.36328L 6.7959 1.39062L 7.5293 1.40625L 7.5293 5.32031L 6.80029 5.32031L 6.80029 4.88672C 6.73779 4.95703 6.67432 5.02344 6.60986 5.08203C 6.53516 5.14844 6.45947 5.20312 6.38281 5.24609C 6.23877 5.33203 6.09473 5.375 5.96045 5.375C 5.78857 5.375 5.66309 5.3125 5.5752 5.19531C 5.4917 5.08203 5.44971 4.90625 5.44971 4.67188L 5.44971 1.39453L 6.17871 1.39453L 6.17871 4.39844C 6.17871 4.44922 6.18262 4.48828 6.19092 4.51953C 6.19824 4.55078 6.20947 4.57812 6.2251 4.59766C 6.24121 4.62109 6.26709 4.64062 6.29883 4.64844L 6.37354 4.66016C 6.39941 4.66016 6.4292 4.65234 6.46338 4.63672L 6.57324 4.57422C 6.65186 4.51562 6.73096 4.44922 6.7959 4.36328Z"/>
<path id="path1_fill" d="M 0.301717 0C 0.250658 0 0.199598 0.0139254 0.148538 0.0417763C 0.0974779 0.0696271 0.0510599 0.10212 0 0.162463L 0 2.60405C 0.0557017 2.66904 0.116045 2.7201 0.171747 2.74331C 0.227448 2.77116 0.287792 2.78508 0.348135 2.78508C 0.43633 2.78508 0.501315 2.75723 0.543091 2.70153C 0.584867 2.65047 0.603435 2.55764 0.603435 2.43231L 0.608077 2.43231L 0.608077 0.403837C 0.608077 0.273867 0.580226 0.171747 0.529166 0.10212C 0.468822 0.0371344 0.399195 0 0.301717 0Z"/>
<path id="path2_fill" d="M 0.329568 0C 0.213523 0 0.134612 0.0324926 0.0789107 0.10212C 0.023209 0.171747 0 0.287792 0 0.454897L 0.00464181 0.454897L 0.00464181 0.854092L 0.645211 0.854092L 0.645211 0.454897C 0.645211 0.287792 0.61736 0.176389 0.5663 0.10212C 0.519882 0.0324926 0.445613 0 0.329568 0Z"/>
</defs>
</svg>
